<!-- Generator: Adobe Illustrator 19.1.0, SVG Export Plug-In  -->
<svg version="1.1"
	 xmlns="http://www.w3.org/2000/svg" xmlns:xlink="http://www.w3.org/1999/xlink" xmlns:a="http://ns.adobe.com/AdobeSVGViewerExtensions/3.0/"
	 x="0px" y="0px" width="682px" height="2px" viewBox="0 0 682 2" enable-background="new 0 0 682 2" xml:space="preserve">
<defs>
</defs>
<g id="XMLID_1_">
	<g id="XMLID_173_">
		<circle id="XMLID_174_" fill="#CCCCCC" cx="681" cy="1" r="1"/>
	</g>
	<g id="XMLID_171_">
		<circle id="XMLID_172_" fill="#CCCCCC" cx="673" cy="1" r="1"/>
	</g>
	<g id="XMLID_169_">
		<circle id="XMLID_170_" fill="#CCCCCC" cx="665" cy="1" r="1"/>
	</g>
	<g id="XMLID_167_">
		<circle id="XMLID_168_" fill="#CCCCCC" cx="657" cy="1" r="1"/>
	</g>
	<g id="XMLID_165_">
		<circle id="XMLID_166_" fill="#CCCCCC" cx="649" cy="1" r="1"/>
	</g>
	<g id="XMLID_163_">
		<circle id="XMLID_164_" fill="#CCCCCC" cx="641" cy="1" r="1"/>
	</g>
	<g id="XMLID_161_">
		<circle id="XMLID_162_" fill="#CCCCCC" cx="633" cy="1" r="1"/>
	</g>
	<g id="XMLID_159_">
		<circle id="XMLID_160_" fill="#CCCCCC" cx="625" cy="1" r="1"/>
	</g>
	<g id="XMLID_157_">
		<circle id="XMLID_158_" fill="#CCCCCC" cx="617" cy="1" r="1"/>
	</g>
	<g id="XMLID_155_">
		<circle id="XMLID_156_" fill="#CCCCCC" cx="609" cy="1" r="1"/>
	</g>
	<g id="XMLID_153_">
		<circle id="XMLID_154_" fill="#CCCCCC" cx="601" cy="1" r="1"/>
	</g>
	<g id="XMLID_151_">
		<circle id="XMLID_152_" fill="#CCCCCC" cx="593" cy="1" r="1"/>
	</g>
	<g id="XMLID_149_">
		<circle id="XMLID_150_" fill="#CCCCCC" cx="585" cy="1" r="1"/>
	</g>
	<g id="XMLID_147_">
		<circle id="XMLID_148_" fill="#CCCCCC" cx="577" cy="1" r="1"/>
	</g>
	<g id="XMLID_145_">
		<circle id="XMLID_146_" fill="#CCCCCC" cx="569" cy="1" r="1"/>
	</g>
	<g id="XMLID_143_">
		<circle id="XMLID_144_" fill="#CCCCCC" cx="561" cy="1" r="1"/>
	</g>
	<g id="XMLID_141_">
		<circle id="XMLID_142_" fill="#CCCCCC" cx="553" cy="1" r="1"/>
	</g>
	<g id="XMLID_139_">
		<circle id="XMLID_140_" fill="#CCCCCC" cx="545" cy="1" r="1"/>
	</g>
	<g id="XMLID_137_">
		<circle id="XMLID_138_" fill="#CCCCCC" cx="537" cy="1" r="1"/>
	</g>
	<g id="XMLID_135_">
		<circle id="XMLID_136_" fill="#CCCCCC" cx="529" cy="1" r="1"/>
	</g>
	<g id="XMLID_133_">
		<circle id="XMLID_134_" fill="#CCCCCC" cx="521" cy="1" r="1"/>
	</g>
	<g id="XMLID_131_">
		<circle id="XMLID_132_" fill="#CCCCCC" cx="513" cy="1" r="1"/>
	</g>
	<g id="XMLID_129_">
		<circle id="XMLID_130_" fill="#CCCCCC" cx="505" cy="1" r="1"/>
	</g>
	<g id="XMLID_127_">
		<circle id="XMLID_128_" fill="#CCCCCC" cx="497" cy="1" r="1"/>
	</g>
	<g id="XMLID_125_">
		<circle id="XMLID_126_" fill="#CCCCCC" cx="489" cy="1" r="1"/>
	</g>
	<g id="XMLID_123_">
		<circle id="XMLID_124_" fill="#CCCCCC" cx="481" cy="1" r="1"/>
	</g>
	<g id="XMLID_121_">
		<circle id="XMLID_122_" fill="#CCCCCC" cx="473" cy="1" r="1"/>
	</g>
	<g id="XMLID_119_">
		<circle id="XMLID_120_" fill="#CCCCCC" cx="465" cy="1" r="1"/>
	</g>
	<g id="XMLID_117_">
		<circle id="XMLID_118_" fill="#CCCCCC" cx="457" cy="1" r="1"/>
	</g>
	<g id="XMLID_115_">
		<circle id="XMLID_116_" fill="#CCCCCC" cx="449" cy="1" r="1"/>
	</g>
	<g id="XMLID_113_">
		<circle id="XMLID_114_" fill="#CCCCCC" cx="441" cy="1" r="1"/>
	</g>
	<g id="XMLID_111_">
		<circle id="XMLID_112_" fill="#CCCCCC" cx="433" cy="1" r="1"/>
	</g>
	<g id="XMLID_109_">
		<circle id="XMLID_110_" fill="#CCCCCC" cx="425" cy="1" r="1"/>
	</g>
	<g id="XMLID_107_">
		<circle id="XMLID_108_" fill="#CCCCCC" cx="417" cy="1" r="1"/>
	</g>
	<g id="XMLID_105_">
		<circle id="XMLID_106_" fill="#CCCCCC" cx="409" cy="1" r="1"/>
	</g>
	<g id="XMLID_103_">
		<circle id="XMLID_104_" fill="#CCCCCC" cx="401" cy="1" r="1"/>
	</g>
	<g id="XMLID_101_">
		<circle id="XMLID_102_" fill="#CCCCCC" cx="393" cy="1" r="1"/>
	</g>
	<g id="XMLID_99_">
		<circle id="XMLID_100_" fill="#CCCCCC" cx="385" cy="1" r="1"/>
	</g>
	<g id="XMLID_97_">
		<circle id="XMLID_98_" fill="#CCCCCC" cx="377" cy="1" r="1"/>
	</g>
	<g id="XMLID_95_">
		<circle id="XMLID_96_" fill="#CCCCCC" cx="369" cy="1" r="1"/>
	</g>
	<g id="XMLID_93_">
		<circle id="XMLID_94_" fill="#CCCCCC" cx="361" cy="1" r="1"/>
	</g>
	<g id="XMLID_91_">
		<circle id="XMLID_92_" fill="#CCCCCC" cx="353" cy="1" r="1"/>
	</g>
	<g id="XMLID_89_">
		<circle id="XMLID_90_" fill="#CCCCCC" cx="345" cy="1" r="1"/>
	</g>
	<g id="XMLID_87_">
		<circle id="XMLID_88_" fill="#CCCCCC" cx="337" cy="1" r="1"/>
	</g>
	<g id="XMLID_85_">
		<circle id="XMLID_86_" fill="#CCCCCC" cx="329" cy="1" r="1"/>
	</g>
	<g id="XMLID_83_">
		<circle id="XMLID_84_" fill="#CCCCCC" cx="321" cy="1" r="1"/>
	</g>
	<g id="XMLID_81_">
		<circle id="XMLID_82_" fill="#CCCCCC" cx="313" cy="1" r="1"/>
	</g>
	<g id="XMLID_79_">
		<circle id="XMLID_80_" fill="#CCCCCC" cx="305" cy="1" r="1"/>
	</g>
	<g id="XMLID_77_">
		<circle id="XMLID_78_" fill="#CCCCCC" cx="297" cy="1" r="1"/>
	</g>
	<g id="XMLID_75_">
		<circle id="XMLID_76_" fill="#CCCCCC" cx="289" cy="1" r="1"/>
	</g>
	<g id="XMLID_73_">
		<circle id="XMLID_74_" fill="#CCCCCC" cx="281" cy="1" r="1"/>
	</g>
	<g id="XMLID_71_">
		<circle id="XMLID_72_" fill="#CCCCCC" cx="273" cy="1" r="1"/>
	</g>
	<g id="XMLID_69_">
		<circle id="XMLID_70_" fill="#CCCCCC" cx="265" cy="1" r="1"/>
	</g>
	<g id="XMLID_67_">
		<circle id="XMLID_68_" fill="#CCCCCC" cx="257" cy="1" r="1"/>
	</g>
	<g id="XMLID_65_">
		<circle id="XMLID_66_" fill="#CCCCCC" cx="249" cy="1" r="1"/>
	</g>
	<g id="XMLID_63_">
		<circle id="XMLID_64_" fill="#CCCCCC" cx="241" cy="1" r="1"/>
	</g>
	<g id="XMLID_61_">
		<circle id="XMLID_62_" fill="#CCCCCC" cx="233" cy="1" r="1"/>
	</g>
	<g id="XMLID_59_">
		<circle id="XMLID_60_" fill="#CCCCCC" cx="225" cy="1" r="1"/>
	</g>
	<g id="XMLID_57_">
		<circle id="XMLID_58_" fill="#CCCCCC" cx="217" cy="1" r="1"/>
	</g>
	<g id="XMLID_55_">
		<circle id="XMLID_56_" fill="#CCCCCC" cx="209" cy="1" r="1"/>
	</g>
	<g id="XMLID_53_">
		<circle id="XMLID_54_" fill="#CCCCCC" cx="201" cy="1" r="1"/>
	</g>
	<g id="XMLID_51_">
		<circle id="XMLID_52_" fill="#CCCCCC" cx="193" cy="1" r="1"/>
	</g>
	<g id="XMLID_49_">
		<circle id="XMLID_50_" fill="#CCCCCC" cx="185" cy="1" r="1"/>
	</g>
	<g id="XMLID_47_">
		<circle id="XMLID_48_" fill="#CCCCCC" cx="177" cy="1" r="1"/>
	</g>
	<g id="XMLID_45_">
		<circle id="XMLID_46_" fill="#CCCCCC" cx="169" cy="1" r="1"/>
	</g>
	<g id="XMLID_43_">
		<circle id="XMLID_44_" fill="#CCCCCC" cx="161" cy="1" r="1"/>
	</g>
	<g id="XMLID_41_">
		<circle id="XMLID_42_" fill="#CCCCCC" cx="153" cy="1" r="1"/>
	</g>
	<g id="XMLID_39_">
		<circle id="XMLID_40_" fill="#CCCCCC" cx="145" cy="1" r="1"/>
	</g>
	<g id="XMLID_37_">
		<circle id="XMLID_38_" fill="#CCCCCC" cx="137" cy="1" r="1"/>
	</g>
	<g id="XMLID_35_">
		<circle id="XMLID_36_" fill="#CCCCCC" cx="129" cy="1" r="1"/>
	</g>
	<g id="XMLID_33_">
		<circle id="XMLID_34_" fill="#CCCCCC" cx="121" cy="1" r="1"/>
	</g>
	<g id="XMLID_31_">
		<circle id="XMLID_32_" fill="#CCCCCC" cx="113" cy="1" r="1"/>
	</g>
	<g id="XMLID_29_">
		<circle id="XMLID_30_" fill="#CCCCCC" cx="105" cy="1" r="1"/>
	</g>
	<g id="XMLID_27_">
		<circle id="XMLID_28_" fill="#CCCCCC" cx="97" cy="1" r="1"/>
	</g>
	<g id="XMLID_25_">
		<circle id="XMLID_26_" fill="#CCCCCC" cx="89" cy="1" r="1"/>
	</g>
	<g id="XMLID_23_">
		<circle id="XMLID_24_" fill="#CCCCCC" cx="81" cy="1" r="1"/>
	</g>
	<g id="XMLID_21_">
		<circle id="XMLID_22_" fill="#CCCCCC" cx="73" cy="1" r="1"/>
	</g>
	<g id="XMLID_19_">
		<circle id="XMLID_20_" fill="#CCCCCC" cx="65" cy="1" r="1"/>
	</g>
	<g id="XMLID_17_">
		<circle id="XMLID_18_" fill="#CCCCCC" cx="57" cy="1" r="1"/>
	</g>
	<g id="XMLID_15_">
		<circle id="XMLID_16_" fill="#CCCCCC" cx="49" cy="1" r="1"/>
	</g>
	<g id="XMLID_13_">
		<circle id="XMLID_14_" fill="#CCCCCC" cx="41" cy="1" r="1"/>
	</g>
	<g id="XMLID_11_">
		<circle id="XMLID_12_" fill="#CCCCCC" cx="33" cy="1" r="1"/>
	</g>
	<g id="XMLID_9_">
		<circle id="XMLID_10_" fill="#CCCCCC" cx="25" cy="1" r="1"/>
	</g>
	<g id="XMLID_7_">
		<circle id="XMLID_8_" fill="#CCCCCC" cx="17" cy="1" r="1"/>
	</g>
	<g id="XMLID_5_">
		<circle id="XMLID_6_" fill="#CCCCCC" cx="9" cy="1" r="1"/>
	</g>
	<g id="XMLID_3_">
		<circle id="XMLID_4_" fill="#CCCCCC" cx="1" cy="1" r="1"/>
	</g>
</g>
</svg>
