<!-- Generator: Adobe Illustrator 19.1.0, SVG Export Plug-In  -->
<svg version="1.1"
	 xmlns="http://www.w3.org/2000/svg" xmlns:xlink="http://www.w3.org/1999/xlink" xmlns:a="http://ns.adobe.com/AdobeSVGViewerExtensions/3.0/"
	 x="0px" y="0px" width="2px" height="146px" viewBox="0 0 2 146" enable-background="new 0 0 2 146" xml:space="preserve">
<defs>
</defs>
<g id="XMLID_1_">
	<g>
		<circle fill="#CCCCCC" cx="1" cy="145" r="1"/>
	</g>
	<g>
		<circle fill="#CCCCCC" cx="1" cy="137" r="1"/>
	</g>
	<g>
		<circle fill="#CCCCCC" cx="1" cy="129" r="1"/>
	</g>
	<g>
		<circle fill="#CCCCCC" cx="1" cy="121" r="1"/>
	</g>
	<g>
		<circle fill="#CCCCCC" cx="1" cy="113" r="1"/>
	</g>
	<g>
		<circle fill="#CCCCCC" cx="1" cy="105" r="1"/>
	</g>
	<g>
		<circle fill="#CCCCCC" cx="1" cy="97" r="1"/>
	</g>
	<g>
		<circle fill="#CCCCCC" cx="1" cy="89" r="1"/>
	</g>
	<g>
		<circle fill="#CCCCCC" cx="1" cy="81" r="1"/>
	</g>
	<g>
		<circle fill="#CCCCCC" cx="1" cy="73" r="1"/>
	</g>
	<g>
		<circle fill="#CCCCCC" cx="1" cy="65" r="1"/>
	</g>
	<g>
		<circle fill="#CCCCCC" cx="1" cy="57" r="1"/>
	</g>
	<g>
		<circle fill="#CCCCCC" cx="1" cy="49" r="1"/>
	</g>
	<g>
		<circle fill="#CCCCCC" cx="1" cy="41" r="1"/>
	</g>
	<g>
		<circle fill="#CCCCCC" cx="1" cy="33" r="1"/>
	</g>
	<g>
		<circle fill="#CCCCCC" cx="1" cy="25" r="1"/>
	</g>
	<g>
		<circle fill="#CCCCCC" cx="1" cy="17" r="1"/>
	</g>
	<g>
		<circle fill="#CCCCCC" cx="1" cy="9" r="1"/>
	</g>
	<g>
		<circle fill="#CCCCCC" cx="1" cy="1" r="1"/>
	</g>
</g>
</svg>
