<svg version="1.1" xmlns="http://www.w3.org/2000/svg" xmlns:xlink="http://www.w3.org/1999/xlink" xmlns:a="http://ns.adobe.com/AdobeSVGViewerExtensions/3.0/" x="0px" y="0px" width="150px" height="26.2px" viewBox="0 0 150 26.2" enable-background="new 0 0 150 26.2" xml:space="preserve" >
                                <defs>
                                </defs>
                                <g id="Header_mobile_copia">
                                    <g id="XMLID_1_">
                                        <g id="XMLID_22_">
                                            <g id="XMLID_23_">
                                                <path id="XMLID_102_" fill-rule="evenodd" clip-rule="evenodd" fill="#0058A4" d="M3.2,26.1l-0.5,0l-0.5-1.3H1l-0.5,1.3l-0.3,0 l1.5-3.3h0.1L3.2,26.1z M2.2,24.6l-0.5-1.2l-0.5,1.2H2.2z"/>
                                                <path id="XMLID_101_" fill-rule="evenodd" clip-rule="evenodd" fill="#0058A4" d="M5.5,25.4c-0.1,0.2-0.3,0.4-0.4,0.5 c-0.2,0.1-0.4,0.2-0.6,0.2c-0.3,0-0.5-0.1-0.8-0.3l0.1-0.4c0.1,0.1,0.2,0.2,0.4,0.3c0.1,0.1,0.3,0.1,0.5,0.1 c0.2,0,0.3,0,0.4-0.1c0.1-0.1,0.2-0.2,0.2-0.3c0-0.1,0.1-0.2,0.1-0.3c0-0.1,0-0.2-0.1-0.3c0-0.1-0.1-0.2-0.2-0.2L4,24.3 c-0.1-0.1-0.2-0.2-0.3-0.3c-0.1-0.1-0.1-0.3-0.1-0.4c0-0.1,0-0.3,0.1-0.4C3.8,23.1,3.9,23,4,22.9c0.1-0.1,0.2-0.1,0.3-0.1 c0.1,0,0.3,0,0.4,0c0.2,0,0.4,0.1,0.6,0.2l-0.1,0.3l0,0C5.2,23.2,5.1,23.1,5,23c-0.1-0.1-0.2-0.1-0.4-0.1 c-0.2,0-0.3,0.1-0.5,0.2C4,23.2,4,23.4,4,23.5c0,0.2,0.1,0.4,0.3,0.5c0.1,0,0.2,0.1,0.4,0.2c0.2,0.1,0.3,0.2,0.4,0.2 c0.1,0.1,0.2,0.2,0.3,0.3c0.1,0.1,0.1,0.3,0.1,0.4C5.5,25.2,5.5,25.3,5.5,25.4z"/>
                                                <path id="XMLID_98_" fill-rule="evenodd" clip-rule="evenodd" fill="#0058A4" d="M9.4,23.7c0.1,0.2,0.1,0.4,0.1,0.6 c0,0.4-0.1,0.7-0.3,1c-0.2,0.3-0.4,0.5-0.6,0.6c-0.2,0.1-0.4,0.1-0.4,0.1c-0.1,0-0.1,0-0.2,0l-0.5,0c-0.4,0-0.8-0.2-1-0.5 C6.1,25.3,6,24.9,6,24.5c0-0.4,0.1-0.8,0.4-1.1c0.2-0.3,0.5-0.5,0.8-0.6c0.3-0.1,0.5-0.1,0.7-0.1c0,0,0.1,0,0.1,0 c0,0,0.1,0,0.3,0c0.2,0,0.4,0.1,0.7,0.3C9.1,23.2,9.3,23.4,9.4,23.7z M9.1,24.6C9.1,24.6,9.1,24.5,9.1,24.6c0-0.1,0-0.2,0-0.2 c0-0.3-0.1-0.6-0.2-0.9c-0.1-0.3-0.3-0.4-0.5-0.5c-0.2-0.1-0.3-0.1-0.4-0.1c-0.1,0-0.2,0-0.2,0c-0.3,0-0.5,0.1-0.8,0.2 c-0.2,0.2-0.4,0.4-0.5,0.6c0,0.1-0.1,0.3-0.1,0.4c0,0.1,0,0.2,0,0.4c0,0.2,0,0.5,0.1,0.7c0.1,0.2,0.2,0.4,0.4,0.6 c0.1,0.1,0.2,0.2,0.4,0.2C7.5,26,7.6,26,7.8,26c0,0,0.1,0,0.1,0C8,26,8,26,8,26c0.2-0.1,0.4-0.2,0.6-0.3 c0.2-0.2,0.3-0.3,0.4-0.6L9.1,24.6z"/>
                                                <path id="XMLID_97_" fill-rule="evenodd" clip-rule="evenodd" fill="#0058A4" d="M12.8,23l-0.1,0.4h0c-0.1-0.1-0.3-0.2-0.5-0.3 c-0.2-0.1-0.3-0.1-0.5-0.1c-0.4,0-0.7,0.1-0.9,0.4c-0.3,0.3-0.4,0.6-0.4,1.1c0,0.5,0.1,0.9,0.4,1.1c0.2,0.2,0.6,0.4,0.9,0.4 c0.2,0,0.4,0,0.6-0.1c0.2-0.1,0.3-0.2,0.5-0.3l0,0.3c-0.2,0.1-0.3,0.2-0.5,0.2c-0.2,0.1-0.4,0.1-0.5,0.1c-0.5,0-0.9-0.2-1.2-0.5 c-0.3-0.3-0.5-0.7-0.5-1.2c0-0.5,0.2-0.9,0.5-1.2c0.3-0.3,0.7-0.5,1.3-0.5c0.2,0,0.4,0,0.6,0C12.5,22.8,12.7,22.9,12.8,23z"/>
                                                <rect id="XMLID_96_" x="13.5" y="22.8" fill-rule="evenodd" clip-rule="evenodd" fill="#0058A4" width="0.4" height="3.3"/>
                                                <path id="XMLID_93_" fill-rule="evenodd" clip-rule="evenodd" fill="#0058A4" d="M17.5,26.1l-0.5,0l-0.5-1.3h-1.2l-0.5,1.3 l-0.3,0l1.5-3.3h0.1L17.5,26.1z M16.5,24.6l-0.5-1.2l-0.5,1.2H16.5z"/>
                                                <path id="XMLID_92_" fill-rule="evenodd" clip-rule="evenodd" fill="#0058A4" d="M20.7,23l-0.1,0.4h0c-0.1-0.1-0.3-0.2-0.5-0.3 c-0.2-0.1-0.3-0.1-0.5-0.1c-0.4,0-0.7,0.1-0.9,0.4c-0.3,0.3-0.4,0.6-0.4,1.1c0,0.5,0.1,0.9,0.4,1.1c0.2,0.2,0.6,0.4,0.9,0.4 c0.2,0,0.4,0,0.6-0.1c0.2-0.1,0.3-0.2,0.5-0.3l0,0.3c-0.2,0.1-0.3,0.2-0.5,0.2c-0.2,0.1-0.4,0.1-0.5,0.1c-0.5,0-0.9-0.2-1.2-0.5 c-0.3-0.3-0.5-0.7-0.5-1.2c0-0.5,0.2-0.9,0.5-1.2c0.3-0.3,0.7-0.5,1.3-0.5c0.2,0,0.4,0,0.6,0C20.3,22.8,20.5,22.9,20.7,23z"/>
                                                <rect id="XMLID_91_" x="21.4" y="22.8" fill-rule="evenodd" clip-rule="evenodd" fill="#0058A4" width="0.4" height="3.3"/>
                                                <path id="XMLID_88_" fill-rule="evenodd" clip-rule="evenodd" fill="#0058A4" d="M25.9,23.7c0.1,0.2,0.1,0.4,0.1,0.6 c0,0.4-0.1,0.7-0.3,1c-0.2,0.3-0.4,0.5-0.6,0.6c-0.2,0.1-0.4,0.1-0.4,0.1c-0.1,0-0.1,0-0.2,0l-0.5,0c-0.4,0-0.8-0.2-1-0.5 c-0.3-0.3-0.4-0.7-0.4-1.1c0-0.4,0.1-0.8,0.4-1.1c0.2-0.3,0.5-0.5,0.8-0.6c0.3-0.1,0.5-0.1,0.7-0.1c0,0,0.1,0,0.1,0 c0,0,0.1,0,0.3,0c0.2,0,0.4,0.1,0.7,0.3S25.8,23.4,25.9,23.7z M25.6,24.6C25.6,24.6,25.6,24.5,25.6,24.6c0-0.1,0-0.2,0-0.2 c0-0.3-0.1-0.6-0.2-0.9c-0.1-0.3-0.3-0.4-0.5-0.5c-0.2-0.1-0.3-0.1-0.4-0.1c-0.1,0-0.2,0-0.2,0c-0.3,0-0.5,0.1-0.8,0.2 c-0.2,0.2-0.4,0.4-0.5,0.6c0,0.1-0.1,0.3-0.1,0.4c0,0.1,0,0.2,0,0.4c0,0.2,0,0.5,0.1,0.7c0.1,0.2,0.2,0.4,0.4,0.6 c0.1,0.1,0.2,0.2,0.4,0.2c0.1,0,0.3,0.1,0.4,0.1c0,0,0.1,0,0.1,0c0.1,0,0.1,0,0.1,0c0.2-0.1,0.4-0.2,0.6-0.3 c0.2-0.2,0.3-0.3,0.4-0.6L25.6,24.6z"/>
                                                <path id="XMLID_87_" fill-rule="evenodd" clip-rule="evenodd" fill="#0058A4" d="M29.6,26.1L29.6,26.1c-0.5-0.4-0.8-0.9-1.3-1.3 c-0.4-0.4-0.8-0.9-1.2-1.3v2.5h-0.3v-3.3h0.1c0.3,0.3,0.5,0.6,0.8,0.8c0.2,0.3,0.5,0.5,0.8,0.8c0.3,0.3,0.5,0.6,0.9,0.9v-2.5 h0.3V26.1z"/>
                                                <path id="XMLID_86_" fill-rule="evenodd" clip-rule="evenodd" fill="#0058A4" d="M35,23l-0.2,0.4c-0.2-0.2-0.4-0.3-0.5-0.4 C34.2,23,34,23,33.7,23c-0.3,0-0.7,0.1-0.9,0.3c-0.3,0.2-0.4,0.6-0.4,1c0,0.5,0.1,0.9,0.4,1.2c0.2,0.3,0.6,0.5,1,0.5 c0.2,0,0.3,0,0.5,0c0.1,0,0.2-0.1,0.3-0.1v-1.2c0.1,0,0.1,0,0.2,0c0.1,0,0.1,0,0.2,0V26c-0.1,0.1-0.3,0.1-0.6,0.2 c-0.3,0-0.5,0.1-0.7,0.1c-0.6,0-1-0.1-1.3-0.4c-0.3-0.3-0.5-0.7-0.5-1.2c0-0.5,0.1-0.8,0.3-1.1c0.2-0.3,0.5-0.4,0.7-0.5 c0.3-0.1,0.6-0.1,0.8-0.1c0.2,0,0.4,0,0.6,0.1C34.6,22.9,34.8,22.9,35,23z"/>
                                                <path id="XMLID_83_" fill-rule="evenodd" clip-rule="evenodd" fill="#0058A4" d="M38.3,26.1h-0.5c-0.2-0.2-0.3-0.4-0.4-0.6 c-0.1-0.2-0.2-0.3-0.4-0.5c-0.1-0.2-0.3-0.3-0.4-0.5h-0.2v1.6h-0.4v-3.3h1.4c0.2,0,0.4,0.1,0.5,0.2c0.1,0.1,0.2,0.3,0.2,0.5 c0,0.1,0,0.1,0,0.2c-0.1,0.2-0.2,0.3-0.4,0.5c-0.2,0.1-0.4,0.2-0.6,0.2L38.3,26.1z M37.1,24.2c0.1-0.1,0.2-0.1,0.3-0.3 c0.1-0.1,0.1-0.2,0.1-0.4c0-0.1,0-0.3-0.1-0.4C37.3,23.1,37.2,23,37,23h-0.7v1.3h0.6L37.1,24.2z"/>
                                                <polygon id="XMLID_82_" fill-rule="evenodd" clip-rule="evenodd" fill="#0058A4" points="40.5,26.1 38.8,26.1 38.8,22.8 40.5,22.8 40.5,23 39.2,23 39.2,24.2 40.4,24.2 40.4,24.4 39.2,24.4 39.2,25.8 40.5,25.8 				"/>
                                                <polygon id="XMLID_81_" fill-rule="evenodd" clip-rule="evenodd" fill="#0058A4" points="44.8,26.1 44.4,26.1 44.1,23.6 42.9,26 42.8,26 41.6,23.6 41.3,26.1 41,26.1 41.5,22.7 41.6,22.7 42.9,25.3 44.4,22.7 44.4,22.7 				"/>
                                                <rect id="XMLID_80_" x="45.6" y="22.8" fill-rule="evenodd" clip-rule="evenodd" fill="#0058A4" width="0.4" height="3.3"/>
                                                <path id="XMLID_77_" fill-rule="evenodd" clip-rule="evenodd" fill="#0058A4" d="M49.6,26.1l-0.5,0l-0.5-1.3h-1.2l-0.5,1.3 l-0.3,0l1.5-3.3h0.1L49.6,26.1z M48.5,24.6L48,23.4l-0.5,1.2H48.5z"/>
                                                <polygon id="XMLID_76_" fill-rule="evenodd" clip-rule="evenodd" fill="#0058A4" points="51.9,26.1 50.2,26.1 50.2,22.8 50.6,22.8 50.6,25.8 51.9,25.8 				"/>
                                                <path id="XMLID_73_" fill-rule="evenodd" clip-rule="evenodd" fill="#0058A4" d="M57,23.6c0.1,0.1,0.1,0.2,0.1,0.4 c0,0.1,0,0.3,0,0.4c0,0.5-0.1,0.9-0.4,1.2c-0.3,0.4-0.7,0.5-1.1,0.5h-1.5v-3.3h1.7c0.3,0,0.5,0.1,0.7,0.2 C56.7,23.2,56.9,23.3,57,23.6z M56.5,23.5c-0.1-0.2-0.2-0.3-0.4-0.4C56,23,55.8,23,55.6,23h-0.1h-1v2.9h1c0.4,0,0.6-0.2,0.8-0.5 c0.2-0.3,0.3-0.6,0.3-1c0-0.2,0-0.3,0-0.5C56.6,23.8,56.5,23.6,56.5,23.5z"/>
                                                <polygon id="XMLID_72_" fill-rule="evenodd" clip-rule="evenodd" fill="#0058A4" points="59.6,26.1 57.9,26.1 57.9,22.8 59.6,22.8 59.6,23 58.3,23 58.3,24.2 59.4,24.2 59.4,24.4 58.3,24.4 58.3,25.8 59.6,25.8 				"/>
                                                <path id="XMLID_69_" fill-rule="evenodd" clip-rule="evenodd" fill="#0058A4" d="M63.2,22.8v3.3h0.8v-1.4l0.5,0 c0.3,0,0.5-0.1,0.6-0.3c0.2-0.1,0.3-0.3,0.3-0.4c0-0.1,0-0.2,0-0.2c0,0,0,0,0-0.1c0-0.2-0.1-0.5-0.2-0.6s-0.4-0.3-0.6-0.3H63.2z M64.2,23c0.2,0,0.3,0.1,0.4,0.2c0.1,0.1,0.1,0.3,0.1,0.4c0,0.1,0,0.3-0.1,0.4c-0.1,0.1-0.1,0.2-0.2,0.3 c-0.1,0.1-0.2,0.1-0.4,0.1V23C64,23,64,23,64.2,23C64.1,23,64.1,23,64.2,23z"/>
                                                <path id="XMLID_66_" fill-rule="evenodd" clip-rule="evenodd" fill="#0058A4" d="M65.9,22.8v3.3h0.7v-1.5h0l0.9,1.5h0.9l-1-1.6 c0.2,0,0.3-0.1,0.4-0.2c0.1-0.1,0.2-0.2,0.3-0.3c0.1-0.1,0.1-0.2,0.1-0.4c0-0.2-0.1-0.4-0.2-0.6c-0.2-0.2-0.3-0.2-0.6-0.2H65.9z M66.7,23h0.2c0.2,0,0.3,0.1,0.4,0.2c0.1,0.1,0.1,0.3,0.1,0.4c0,0,0,0,0,0.1c0,0,0,0.1-0.1,0.3c0,0.2-0.2,0.3-0.6,0.3 c0,0-0.1,0-0.1,0V23z"/>
                                                <path id="XMLID_63_" fill-rule="evenodd" clip-rule="evenodd" fill="#0058A4" d="M70.2,22.7c-0.1,0-0.1,0-0.2,0 c-0.1,0-0.2,0-0.4,0.1c-0.2,0.1-0.4,0.2-0.6,0.4c-0.2,0.2-0.3,0.4-0.3,0.6c-0.1,0.2-0.1,0.4-0.1,0.6c0,0.1,0,0.3,0,0.4 c0,0.1,0.1,0.3,0.1,0.4c0.2,0.3,0.4,0.5,0.7,0.7c0.3,0.1,0.6,0.2,1,0.2c0.1,0,0.2,0,0.2,0c0.1,0,0.1,0,0.3,0 c0.2,0,0.4-0.1,0.5-0.2c0.2-0.1,0.3-0.2,0.4-0.4c0.1-0.2,0.2-0.3,0.3-0.5c0.1-0.2,0.1-0.4,0.1-0.6c0-0.1,0-0.3-0.1-0.6 c0-0.3-0.2-0.5-0.6-0.8c-0.3-0.2-0.7-0.4-1.2-0.4C70.3,22.7,70.3,22.7,70.2,22.7C70.2,22.7,70.2,22.7,70.2,22.7z M70.3,23 C70.3,23,70.3,23,70.3,23c0.1,0,0.1,0,0.2,0c0,0,0.1,0,0.1,0c0.2,0.1,0.4,0.2,0.5,0.4c0.1,0.2,0.2,0.4,0.2,0.6 c0,0.2,0,0.3,0,0.4c0,0.3-0.1,0.6-0.2,0.9c-0.1,0.3-0.3,0.4-0.5,0.5c-0.2,0-0.3,0.1-0.4,0.1c0,0-0.1,0-0.3,0 c-0.2,0-0.3-0.2-0.5-0.4c-0.1-0.3-0.2-0.6-0.2-0.9c0-0.1,0-0.3,0-0.5c0-0.2,0.1-0.4,0.3-0.7C69.8,23.1,70,23,70.3,23z"/>
                                                <path id="XMLID_60_" fill-rule="evenodd" clip-rule="evenodd" fill="#0058A4" d="M72.8,22.8v3.3h1.7c0.4-0.1,0.8-0.3,1-0.6 c0.3-0.3,0.4-0.7,0.4-1.2v-0.1c0,0,0,0,0-0.1c0,0,0-0.1,0-0.3c0-0.2-0.2-0.4-0.4-0.6c-0.2-0.2-0.5-0.4-0.9-0.4H72.8z M73.6,23.1 h0.6c0.2,0,0.3,0.1,0.4,0.1c0.1,0,0.2,0.1,0.3,0.2c0.1,0.1,0.2,0.3,0.2,0.5c0.1,0.2,0.1,0.4,0.1,0.6c0,0.3-0.1,0.6-0.2,0.9 c-0.2,0.3-0.4,0.4-0.7,0.5h-0.7V23.1z"/>
                                                <path id="XMLID_59_" fill-rule="evenodd" clip-rule="evenodd" fill="#0058A4" d="M76.7,22.8v2.5c0.1,0.3,0.2,0.5,0.5,0.7 c0.3,0.1,0.6,0.2,0.9,0.2c0.2,0,0.4,0,0.7-0.1c0.2-0.1,0.4-0.2,0.6-0.5c0.1-0.2,0.2-0.4,0.2-0.7v-2.1h-0.4V25l0,0.2 c-0.1,0.2-0.2,0.3-0.3,0.4c-0.1,0.1-0.3,0.2-0.5,0.2c0,0-0.1,0-0.2,0c-0.1,0-0.3-0.1-0.4-0.2c-0.1-0.2-0.2-0.3-0.2-0.6v-2.2
                                                                                                                               H76.7z"/>
                                                <path id="XMLID_58_" fill-rule="evenodd" clip-rule="evenodd" fill="#0058A4" d="M82.4,22.7c-0.1,0-0.2,0-0.3,0 c-0.2,0-0.5,0-0.7,0.1c-0.2,0.1-0.4,0.2-0.6,0.3c-0.2,0.2-0.3,0.4-0.4,0.6c-0.1,0.2-0.1,0.4-0.1,0.7c0,0.2,0,0.4,0.1,0.6 c0.1,0.2,0.2,0.4,0.4,0.6c0.2,0.2,0.4,0.3,0.6,0.4l0.5,0.1c0.1,0,0.2,0,0.3,0c0.2,0,0.3,0,0.5,0c0.2,0,0.3-0.1,0.5-0.2l0.1-0.4 c0,0-0.1,0-0.1,0L83,25.6c-0.1,0.1-0.2,0.2-0.3,0.2c-0.1,0-0.3,0.1-0.4,0.1c-0.2,0-0.3,0-0.4-0.1c-0.1-0.1-0.3-0.1-0.4-0.3 c-0.1-0.1-0.2-0.3-0.3-0.5c-0.1-0.2-0.1-0.4-0.1-0.6c0-0.2,0-0.3,0.1-0.5c0-0.2,0.1-0.3,0.2-0.5c0.1-0.2,0.2-0.3,0.4-0.4 C81.8,23,82,23,82.2,23c0.2,0,0.3,0,0.5,0.1c0.1,0.1,0.3,0.2,0.4,0.3h0.1l0.1-0.5c-0.1-0.1-0.3-0.1-0.4-0.1 C82.6,22.8,82.5,22.7,82.4,22.7z"/>
                                                <polygon id="XMLID_57_" fill-rule="evenodd" clip-rule="evenodd" fill="#0058A4" points="83.5,22.8 83.5,22.8 83.5,23.2 84.4,23.2 84.4,26.1 85.1,26.1 85.1,23.2 86,23.2 86,22.8 "/>
                                                <path id="XMLID_54_" fill-rule="evenodd" clip-rule="evenodd" fill="#0058A4" d="M88,22.7c-0.1,0-0.1,0-0.2,0 c-0.1,0-0.2,0-0.4,0.1c-0.2,0.1-0.4,0.2-0.6,0.4c-0.2,0.2-0.3,0.4-0.3,0.6c-0.1,0.2-0.1,0.4-0.1,0.6c0,0.1,0,0.3,0,0.4 c0,0.1,0.1,0.3,0.1,0.4c0.2,0.3,0.4,0.5,0.7,0.7c0.3,0.1,0.6,0.2,1,0.2c0.1,0,0.2,0,0.2,0c0.1,0,0.1,0,0.3,0 c0.2,0,0.4-0.1,0.5-0.2c0.2-0.1,0.3-0.2,0.4-0.4c0.1-0.2,0.2-0.3,0.3-0.5c0.1-0.2,0.1-0.4,0.1-0.6c0-0.1,0-0.3-0.1-0.6 c0-0.3-0.2-0.5-0.6-0.8c-0.3-0.2-0.7-0.4-1.2-0.4C88.1,22.7,88.1,22.7,88,22.7C88,22.7,88,22.7,88,22.7z M88.1,23 C88.1,23,88.1,23,88.1,23c0.1,0,0.1,0,0.2,0c0,0,0.1,0,0.1,0c0.2,0.1,0.4,0.2,0.5,0.4c0.1,0.2,0.2,0.4,0.2,0.6 c0,0.2,0,0.3,0,0.4c0,0.3-0.1,0.6-0.2,0.9c-0.1,0.3-0.3,0.4-0.5,0.5c-0.2,0-0.3,0.1-0.4,0.1c0,0-0.1,0-0.3,0 c-0.2,0-0.3-0.2-0.5-0.4c-0.1-0.3-0.2-0.6-0.2-0.9c0-0.1,0-0.3,0-0.5c0-0.2,0.1-0.4,0.3-0.7C87.6,23.1,87.8,23,88.1,23z"/>
                                                <path id="XMLID_51_" fill-rule="evenodd" clip-rule="evenodd" fill="#0058A4" d="M90.6,22.8v3.3h0.7v-1.5h0l0.9,1.5h0.9l-1-1.6 c0.2,0,0.3-0.1,0.4-0.2c0.1-0.1,0.2-0.2,0.3-0.3c0.1-0.1,0.1-0.2,0.1-0.4c0-0.2-0.1-0.4-0.2-0.6c-0.2-0.2-0.3-0.2-0.6-0.2H90.6z M91.3,23h0.2c0.2,0,0.3,0.1,0.4,0.2c0.1,0.1,0.1,0.3,0.1,0.4c0,0,0,0,0,0.1c0,0,0,0.1-0.1,0.3c0,0.2-0.2,0.3-0.6,0.3 c0,0-0.1,0-0.1,0V23z"/>
                                                <polygon id="XMLID_50_" fill-rule="evenodd" clip-rule="evenodd" fill="#0058A4" points="93.6,22.8 93.6,26.1 95.5,26.1 95.5,25.7 94.3,25.7 94.3,24.5 95.4,24.5 95.4,24.1 94.3,24.1 94.3,23.2 95.5,23.2 95.5,22.8 				"/>
                                                <path id="XMLID_49_" fill-rule="evenodd" clip-rule="evenodd" fill="#0058A4" d="M96.7,22.7c-0.1,0-0.3,0.1-0.4,0.2 c-0.1,0.1-0.2,0.2-0.3,0.3c-0.1,0.1-0.1,0.3-0.1,0.5c0,0.3,0.1,0.6,0.4,0.8c0.2,0.1,0.5,0.3,0.8,0.4c0.1,0.1,0.1,0.1,0.2,0.2 c0,0.1,0.1,0.1,0.1,0.2c0,0,0,0.1,0,0.2c-0.1,0.1-0.1,0.2-0.2,0.2c-0.1,0.1-0.2,0.1-0.3,0.1c-0.2,0-0.3,0-0.4-0.1 c-0.1-0.1-0.2-0.2-0.2-0.4H96l-0.1,0.6c0.3,0.1,0.5,0.2,0.8,0.2c0.1,0,0.3,0,0.5-0.1c0.2,0,0.4-0.2,0.5-0.4 c0.1-0.2,0.2-0.4,0.2-0.7c0-0.2,0-0.3-0.1-0.4c-0.1-0.1-0.2-0.2-0.3-0.3l-0.8-0.4c-0.1,0-0.1-0.1-0.2-0.2 c-0.1-0.1-0.1-0.2-0.1-0.3c0-0.1,0-0.1,0.1-0.2c0-0.1,0.1-0.1,0.2-0.2c0.1,0,0.1,0,0.1-0.1c0,0,0.1,0,0.1,0c0.1,0,0.2,0,0.3,0.1 c0.1,0.1,0.2,0.2,0.2,0.3c0,0,0.1,0,0.1,0l0.1-0.5c0,0-0.1-0.1-0.1-0.1c-0.2-0.1-0.4-0.1-0.7-0.1C96.9,22.7,96.8,22.7,96.7,22.7 z"/>
                                                <path id="XMLID_46_" fill-rule="evenodd" clip-rule="evenodd" fill="#0058A4" d="M100.2,22.8v3.3h1.7c0.4-0.1,0.8-0.3,1-0.6 c0.3-0.3,0.4-0.7,0.4-1.2v-0.1c0,0,0,0,0-0.1c0,0,0-0.1,0-0.3c0-0.2-0.2-0.4-0.4-0.6c-0.2-0.2-0.5-0.4-0.9-0.4H100.2z M100.9,23.1h0.6c0.2,0,0.3,0.1,0.4,0.1c0.1,0,0.2,0.1,0.3,0.2c0.1,0.1,0.2,0.3,0.2,0.5c0.1,0.2,0.1,0.4,0.1,0.6 c0,0.3-0.1,0.6-0.2,0.9c-0.2,0.3-0.4,0.4-0.7,0.5h-0.7V23.1z"/>
                                                <polygon id="XMLID_45_" fill-rule="evenodd" clip-rule="evenodd" fill="#0058A4" points="104,22.8 104,26.1 105.9,26.1  105.9,25.7 104.7,25.7 104.7,24.5 105.8,24.5 105.8,24.1 104.7,24.1 104.7,23.2 105.9,23.2 105.9,22.8 				"/>
                                                <path id="XMLID_44_" fill-rule="evenodd" clip-rule="evenodd" fill="#0058A4" d="M110,22.7c-0.1,0-0.2,0-0.3,0 c-0.2,0-0.5,0-0.7,0.1c-0.2,0.1-0.4,0.2-0.6,0.3c-0.2,0.2-0.3,0.4-0.4,0.6c-0.1,0.2-0.1,0.4-0.1,0.7c0,0.2,0,0.4,0.1,0.6 c0.1,0.2,0.2,0.4,0.4,0.6c0.2,0.2,0.4,0.3,0.6,0.4l0.5,0.1c0.1,0,0.2,0,0.3,0c0.2,0,0.3,0,0.5,0c0.2,0,0.3-0.1,0.5-0.2l0.1-0.4 c0,0-0.1,0-0.1,0l-0.1,0.1c-0.1,0.1-0.2,0.2-0.3,0.2c-0.1,0-0.3,0.1-0.4,0.1c-0.2,0-0.3,0-0.4-0.1c-0.1-0.1-0.3-0.1-0.4-0.3 c-0.1-0.1-0.2-0.3-0.3-0.5c-0.1-0.2-0.1-0.4-0.1-0.6c0-0.2,0-0.3,0.1-0.5c0-0.2,0.1-0.3,0.2-0.5c0.1-0.2,0.2-0.3,0.4-0.4 c0.2-0.1,0.3-0.1,0.5-0.1c0.2,0,0.3,0,0.5,0.1c0.1,0.1,0.3,0.2,0.4,0.3h0.1l0.1-0.5c-0.1-0.1-0.3-0.1-0.4-0.1 C110.3,22.8,110.1,22.7,110,22.7z"/>
                                                <polygon id="XMLID_43_" fill-rule="evenodd" clip-rule="evenodd" fill="#0058A4" points="111.4,22.8 111.4,26.1 113.2,26.1 113.2,25.7 112.1,25.7 112.1,24.5 113.2,24.5 113.2,24.1 112.1,24.1 112.1,23.2 113.2,23.2 113.2,22.8 				"/>
                                                <path id="XMLID_40_" fill-rule="evenodd" clip-rule="evenodd" fill="#0058A4" d="M113.8,22.8v3.3h0.7v-1.5h0l0.9,1.5h0.9l-1-1.6 c0.2,0,0.3-0.1,0.4-0.2c0.1-0.1,0.2-0.2,0.3-0.3c0.1-0.1,0.1-0.2,0.1-0.4c0-0.2-0.1-0.4-0.2-0.6c-0.2-0.2-0.3-0.2-0.6-0.2H113.8 z M114.6,23h0.2c0.2,0,0.3,0.1,0.4,0.2c0.1,0.1,0.1,0.3,0.1,0.4c0,0,0,0,0,0.1c0,0,0,0.1-0.1,0.3c0,0.2-0.2,0.3-0.6,0.3 c0,0-0.1,0-0.1,0V23z"/>
                                                <path id="XMLID_37_" fill-rule="evenodd" clip-rule="evenodd" fill="#0058A4" d="M116.9,22.8v3.3h1.7c0.4-0.1,0.8-0.3,1-0.6 c0.3-0.3,0.4-0.7,0.4-1.2v-0.1c0,0,0,0,0-0.1c0,0,0-0.1,0-0.3c0-0.2-0.2-0.4-0.4-0.6c-0.2-0.2-0.5-0.4-0.9-0.4H116.9z M117.6,23.1h0.6c0.2,0,0.3,0.1,0.4,0.1c0.1,0,0.2,0.1,0.3,0.2c0.1,0.1,0.2,0.3,0.2,0.5c0.1,0.2,0.1,0.4,0.1,0.6 c0,0.3-0.1,0.6-0.2,0.9c-0.2,0.3-0.4,0.4-0.7,0.5h-0.7V23.1z"/>
                                                <path id="XMLID_34_" fill-rule="evenodd" clip-rule="evenodd" fill="#0058A4" d="M122.2,22.7c-0.1,0-0.1,0-0.2,0 c-0.1,0-0.2,0-0.4,0.1c-0.2,0.1-0.4,0.2-0.6,0.4c-0.2,0.2-0.3,0.4-0.3,0.6c-0.1,0.2-0.1,0.4-0.1,0.6c0,0.1,0,0.3,0,0.4 c0,0.1,0.1,0.3,0.1,0.4c0.2,0.3,0.4,0.5,0.7,0.7c0.3,0.1,0.6,0.2,1,0.2c0.1,0,0.2,0,0.2,0c0.1,0,0.1,0,0.3,0 c0.2,0,0.4-0.1,0.5-0.2c0.2-0.1,0.3-0.2,0.4-0.4c0.1-0.2,0.2-0.3,0.3-0.5c0.1-0.2,0.1-0.4,0.1-0.6c0-0.1,0-0.3-0.1-0.6 c0-0.3-0.2-0.5-0.6-0.8c-0.3-0.2-0.7-0.4-1.2-0.4C122.3,22.7,122.3,22.7,122.2,22.7C122.2,22.7,122.2,22.7,122.2,22.7z M122.3,23C122.3,23,122.3,23,122.3,23c0.1,0,0.1,0,0.2,0c0,0,0.1,0,0.1,0c0.2,0.1,0.4,0.2,0.5,0.4c0.1,0.2,0.2,0.4,0.2,0.6 c0,0.2,0,0.3,0,0.4c0,0.3-0.1,0.6-0.2,0.9c-0.1,0.3-0.3,0.4-0.5,0.5c-0.2,0-0.3,0.1-0.4,0.1c0,0-0.1,0-0.3,0 c-0.2,0-0.3-0.2-0.5-0.4c-0.1-0.3-0.2-0.6-0.2-0.9c0-0.1,0-0.3,0-0.5c0-0.2,0.1-0.4,0.3-0.7C121.8,23.1,122,23,122.3,23z"/>
                                                <path id="XMLID_33_" fill-rule="evenodd" clip-rule="evenodd" fill="#0058A4" d="M125.5,22.7c-0.1,0-0.3,0.1-0.4,0.2 c-0.1,0.1-0.2,0.2-0.3,0.3c-0.1,0.1-0.1,0.3-0.1,0.5c0,0.3,0.1,0.6,0.4,0.8c0.2,0.1,0.5,0.3,0.8,0.4c0.1,0.1,0.1,0.1,0.2,0.2 c0,0.1,0.1,0.1,0.1,0.2c0,0,0,0.1,0,0.2c-0.1,0.1-0.1,0.2-0.2,0.2c-0.1,0.1-0.2,0.1-0.3,0.1c-0.2,0-0.3,0-0.4-0.1 c-0.1-0.1-0.2-0.2-0.2-0.4h-0.1l-0.1,0.6c0.3,0.1,0.5,0.2,0.8,0.2c0.1,0,0.3,0,0.5-0.1c0.2,0,0.4-0.2,0.5-0.4 c0.1-0.2,0.2-0.4,0.2-0.7c0-0.2,0-0.3-0.1-0.4c-0.1-0.1-0.2-0.2-0.3-0.3l-0.8-0.4c-0.1,0-0.1-0.1-0.2-0.2 c-0.1-0.1-0.1-0.2-0.1-0.3c0-0.1,0-0.1,0.1-0.2c0-0.1,0.1-0.1,0.2-0.2c0.1,0,0.1,0,0.1-0.1c0,0,0.1,0,0.1,0c0.1,0,0.2,0,0.3,0.1 c0.1,0.1,0.2,0.2,0.2,0.3c0,0,0.1,0,0.1,0l0.1-0.5c0,0-0.1-0.1-0.1-0.1c-0.2-0.1-0.4-0.1-0.7-0.1 C125.6,22.7,125.6,22.7,125.5,22.7z"/>
                                                <path id="XMLID_30_" fill-rule="evenodd" clip-rule="evenodd" fill="#0058A4" d="M128.9,22.8v3.3h1.7c0.4-0.1,0.8-0.3,1-0.6 c0.3-0.3,0.4-0.7,0.4-1.2v-0.1c0,0,0,0,0-0.1c0,0,0-0.1,0-0.3c0-0.2-0.2-0.4-0.4-0.6c-0.2-0.2-0.5-0.4-0.9-0.4H128.9z M129.7,23.1h0.6c0.2,0,0.3,0.1,0.4,0.1c0.1,0,0.2,0.1,0.3,0.2c0.1,0.1,0.2,0.3,0.2,0.5c0.1,0.2,0.1,0.4,0.1,0.6 c0,0.3-0.1,0.6-0.2,0.9c-0.2,0.3-0.4,0.4-0.7,0.5h-0.7V23.1z"/>
                                                <polygon id="XMLID_29_" fill-rule="evenodd" clip-rule="evenodd" fill="#0058A4" points="132.7,22.8 132.7,26.1 134.6,26.1 134.6,25.7 133.5,25.7 133.5,24.5 134.6,24.5 134.6,24.1 133.5,24.1 133.5,23.2 134.6,23.2 134.6,22.8 				"/>
                                                <path id="XMLID_28_" fill-rule="evenodd" clip-rule="evenodd" fill="#0058A4" d="M138.7,22.7c-0.1,0-0.2,0-0.3,0 c-0.2,0-0.5,0-0.7,0.1c-0.2,0.1-0.4,0.2-0.6,0.3c-0.2,0.2-0.3,0.4-0.4,0.6c-0.1,0.2-0.1,0.4-0.1,0.7c0,0.2,0,0.4,0.1,0.6 c0.1,0.2,0.2,0.4,0.4,0.6c0.2,0.2,0.4,0.3,0.6,0.4l0.5,0.1c0.1,0,0.2,0,0.3,0c0.2,0,0.3,0,0.5,0c0.2,0,0.3-0.1,0.5-0.2l0.1-0.4 c0,0-0.1,0-0.1,0l-0.1,0.1c-0.1,0.1-0.2,0.2-0.3,0.2c-0.1,0-0.3,0.1-0.4,0.1c-0.2,0-0.3,0-0.4-0.1c-0.1-0.1-0.3-0.1-0.4-0.3 c-0.1-0.1-0.2-0.3-0.3-0.5c-0.1-0.2-0.1-0.4-0.1-0.6c0-0.2,0-0.3,0.1-0.5c0-0.2,0.1-0.3,0.2-0.5c0.1-0.2,0.2-0.3,0.4-0.4 c0.2-0.1,0.3-0.1,0.5-0.1c0.2,0,0.3,0,0.5,0.1c0.1,0.1,0.3,0.2,0.4,0.3h0.1l0.1-0.5c-0.1-0.1-0.3-0.1-0.4-0.1 C139,22.8,138.9,22.7,138.7,22.7z"/>
                                                <polygon id="XMLID_27_" fill-rule="evenodd" clip-rule="evenodd" fill="#0058A4" points="140.1,22.8 140.1,22.8 140.1,26.1 140.9,26.1 140.9,24.5 142.4,24.5 142.4,26.1 143.1,26.1 143.1,22.8 142.4,22.8 142.4,24.1 140.9,24.1 140.9,22.8 				"/>
                                                <rect id="XMLID_26_" x="143.9" y="22.8" fill-rule="evenodd" clip-rule="evenodd" fill="#0058A4" width="0.8" height="3.3"/>
                                                <polygon id="XMLID_25_" fill-rule="evenodd" clip-rule="evenodd" fill="#0058A4" points="145.6,22.8 145.6,26.1 147.4,26.1 147.4,25.7 146.3,25.7 146.3,22.8 				"/>
                                                <polygon id="XMLID_24_" fill-rule="evenodd" clip-rule="evenodd" fill="#0058A4" points="148,22.8 148,26.1 149.8,26.1 149.8,25.7 148.7,25.7 148.7,24.5 149.8,24.5 149.8,24.1 148.7,24.1 148.7,23.2 149.8,23.2 149.8,22.8 				"/>
                                            </g>
                                        </g>
                                        <path id="XMLID_19_" fill-rule="evenodd" clip-rule="evenodd" fill="#0058A4" d="M9.7,0.3L0,17.1l3.2,0l2.4-4.9h8.1l2.4,4.9h5.7 c-1-1.7-2-3.5-3-5.3c-1-1.8-2-3.6-3.1-5.6c-1.1-1.9-2.2-3.9-3.3-6H9.7z M9.8,5.1l3,5.5H6.6L9.8,5.1z"/>
                                        <path id="XMLID_18_" fill-rule="evenodd" clip-rule="evenodd" fill="#0058A4" d="M27.8,0.3c-1.1,0.2-2,0.4-2.8,0.8 s-1.6,0.9-2.2,1.6c-0.6,0.7-0.9,1.5-0.9,2.5c0,1.7,1.1,3.1,3.2,4.2c1.8,0.6,3.6,1.3,5.5,2.1c0.5,0.3,0.9,0.6,1.2,1 c0.3,0.4,0.4,0.7,0.4,1.1c0,0.2-0.1,0.5-0.2,0.8c-0.4,0.6-0.9,1-1.6,1.3c-0.7,0.3-1.4,0.4-2.2,0.4c-1.1,0-2.1-0.2-3-0.7 c-0.9-0.5-1.5-1.1-1.7-1.9h-0.8l-0.9,3.1c1.8,0.6,3.7,0.9,5.8,0.9c1,0,2.2-0.1,3.5-0.3c1.4-0.2,2.6-0.8,3.6-1.8 c1-1,1.5-2.1,1.5-3.3c0-0.8-0.2-1.5-0.6-2.1c-0.4-0.6-1.1-1.2-2-1.7L27.8,6c-0.6-0.2-1.1-0.6-1.4-1c-0.4-0.4-0.5-0.8-0.5-1.3 c0-0.3,0.1-0.7,0.4-1c0.2-0.3,0.6-0.6,1.1-0.8c0.4-0.1,0.7-0.2,1.1-0.3c0.3-0.1,0.7-0.1,1.1-0.1c0.9,0,1.7,0.2,2.4,0.5 c0.7,0.3,1.3,0.8,1.7,1.5c0.2,0,0.4,0,0.6,0l1-2.3c-0.3-0.2-0.5-0.4-0.8-0.5c-1.5-0.5-3.2-0.7-4.8-0.7C28.9,0.2,28.4,0.2,27.8,0.3 z"/>
                                        <path id="XMLID_15_" fill-rule="evenodd" clip-rule="evenodd" fill="#0058A4" d="M37.7,0.5v16.6h5.4V9.9l3.7-0.1 c1.8-0.2,3.3-0.6,4.6-1.3c1.3-0.7,2-1.4,2.1-2c0.1-0.7,0.2-1.1,0.2-1.2c0-0.1,0-0.2,0-0.3c0-1.2-0.5-2.3-1.6-3.2 c-1.1-0.9-2.5-1.3-4.3-1.3H37.7z M44.6,1.8c1.2,0,2.1,0.3,2.7,0.9c0.6,0.6,0.9,1.3,0.9,2.2c0,0.7-0.2,1.3-0.5,1.9 c-0.4,0.7-1,1.1-1.8,1.4c-0.8,0.3-1.8,0.4-2.9,0.4V1.8c0.4,0,0.7,0,0.9,0C44.3,1.8,44.5,1.8,44.6,1.8z"/>
                                        <path id="XMLID_12_" fill-rule="evenodd" clip-rule="evenodd" fill="#0058A4" d="M54.9,0.5v16.6h5.2V9.4h0.2l6.2,7.7h6.2l-7.3-8.2 c1.1-0.2,2.1-0.5,2.9-0.9c0.8-0.4,1.5-0.9,1.9-1.5c0.4-0.6,0.6-1.2,0.6-1.9c0-1.1-0.5-2.1-1.6-2.9c-1.1-0.8-2.4-1.2-4-1.2H54.9z M60.1,1.8h1.6c1.2,0,2.1,0.3,2.8,0.9c0.7,0.6,1,1.3,1,2.2c0,0.1,0,0.2,0,0.3c0,0.1-0.2,0.7-0.4,1.7c-0.2,1-1.6,1.5-4.2,1.5 c-0.3,0-0.6,0-0.8,0V1.8z"/>
                                        <g id="XMLID_8_">
                                            <path id="XMLID_9_" fill="#0058A4" d="M94.7,3.3c-0.6-0.5-1.5-1-2.5-1.5c-2.5-1.2-5.3-1.8-8.4-1.8H83h-0.5c-0.5,0-1,0-1.5,0.1 c-0.5,0.1-1.5,0.2-3.1,0.6c-1.6,0.3-3,1-4.2,2.2C72.5,4,71.7,5,71.3,6c-0.4,0.9-0.6,1.9-0.6,2.8c0,0.7,0.1,1.4,0.3,2.2 c0.2,0.7,0.4,1.4,0.8,2.1c1.1,1.6,2.7,2.7,4.8,3.4c2.1,0.7,4.4,1.1,7.1,1.1c0.7,0,1.3,0,1.7,0c0.4,0,1-0.1,2-0.2 c1.3-0.2,2.5-0.6,3.7-1.1c1-0.4,2-1,2.8-1.6c-1.2-1.5-1.9-3.3-1.9-5.1C91.8,7.2,92.9,5.1,94.7,3.3z M89.6,13.5 c-1.1,1.4-2.2,2.2-3.5,2.4c-1.3,0.2-2.2,0.3-2.7,0.3c-0.2,0-0.9-0.1-2.2-0.2c-1.3-0.1-2.4-0.9-3.5-2.2c-1-1.3-1.5-2.9-1.5-4.7 c0-0.5,0.1-1.3,0.2-2.3c0.2-1,0.8-2.2,2-3.4c1.2-1.2,2.8-1.9,4.9-1.9c0.2,0,0.3,0,0.4,0c0.3,0,0.6,0,0.9,0c0.3,0,0.7,0.1,1.1,0.1 c1.7,0.4,3,1.1,3.8,2.1c0.8,1,1.3,2,1.5,2.9c0.2,0.9,0.2,1.6,0.2,2.1C91.2,10.5,90.7,12.1,89.6,13.5z"/>
                                        </g>
                                        <g id="XMLID_2_">
                                            <path id="XMLID_7_" fill-rule="evenodd" clip-rule="evenodd" fill="#676D6F" d="M109.9,0.1c-0.6,0-1.2-0.1-1.8-0.1 c-1.8,0-3.5,0.2-5.1,0.6c-1.6,0.4-3.1,1-4.5,1.8c-1.2,0.8-2.2,1.8-2.8,2.9c-0.6,1.1-0.9,2.3-0.9,3.5c0,1.1,0.3,2.2,0.8,3.3 c0.5,1.1,1.3,2,2.5,2.8c1.2,0.8,2.6,1.4,4.3,1.8l3.4,0.5c0.7,0,1.3,0.1,2,0.1c1.2,0,2.4-0.1,3.6-0.2c1.2-0.2,2.3-0.4,3.3-0.8 l0.8-2.1c-0.3-0.1-0.5-0.1-0.6,0l-0.7,0.4c-0.7,0.4-1.5,0.8-2.5,1c-0.9,0.2-1.9,0.4-2.8,0.4c-1.1,0-2.1-0.1-3.1-0.4 c-0.9-0.3-1.8-0.7-2.7-1.3c-0.8-0.6-1.5-1.4-1.9-2.3c-0.5-0.9-0.7-1.9-0.7-2.9c0-0.9,0.2-1.7,0.5-2.6c0.3-0.9,0.8-1.7,1.3-2.4 c0.7-0.8,1.6-1.4,2.7-1.8c1.1-0.4,2.3-0.6,3.5-0.6c1.1,0,2.2,0.2,3.2,0.5c1,0.3,1.9,0.9,2.6,1.6h0.4l0.8-2.5 c-0.9-0.3-1.8-0.5-2.8-0.7C111.8,0.3,110.9,0.1,109.9,0.1z"/>
                                            <polygon id="XMLID_6_" fill-rule="evenodd" clip-rule="evenodd" fill="#676D6F" points="117.2,0.3 117.2,16.9 130.4,16.9 130.4,15.1 122.5,15.1 122.5,9 130.3,9 130.3,7.3 122.5,7.3 122.5,2.3 130.4,2.3 130.4,0.3 "/>
                                            <path id="XMLID_3_" fill-rule="evenodd" clip-rule="evenodd" fill="#676D6F" d="M132.2,0.3v16.6h5.2V9.3h0.2l6.2,7.7h6.2 l-7.3-8.2c1.1-0.2,2.1-0.5,2.9-0.9c0.8-0.4,1.5-0.9,1.9-1.5s0.6-1.2,0.6-1.9c0-1.1-0.5-2.1-1.6-2.9c-1.1-0.8-2.4-1.2-4-1.2H132.2 z M137.4,1.7h1.6c1.2,0,2.1,0.3,2.8,0.9c0.7,0.6,1,1.3,1,2.2c0,0.1,0,0.2,0,0.3c0,0.1-0.2,0.7-0.4,1.7c-0.2,1-1.6,1.5-4.2,1.5 c-0.3,0-0.6,0-0.8,0V1.7z"/>
                                        </g>
                                    </g>
                                </g>
                            </svg>