<!-- Generator: Adobe Illustrator 19.1.0, SVG Export Plug-In  -->
<svg version="1.1"
	 xmlns="http://www.w3.org/2000/svg" xmlns:xlink="http://www.w3.org/1999/xlink" xmlns:a="http://ns.adobe.com/AdobeSVGViewerExtensions/3.0/"
	 x="0px" y="0px" width="24px" height="24.5px" viewBox="0 0 24 24.5" enable-background="new 0 0 24 24.5" xml:space="preserve">
<defs>
</defs>
<g>
	<g>
		<path fill="#FFFFFF" d="M12.7,12.3L23.8,1.2c0.3-0.3,0.3-0.7,0-1c-0.3-0.3-0.7-0.3-1,0L11.2,11.8c-0.3,0.3-0.3,0.7,0,1l11.6,11.6
			c0.1,0.1,0.3,0.2,0.5,0.2c0.2,0,0.4-0.1,0.5-0.2c0.3-0.3,0.3-0.7,0-1L12.7,12.3z"/>
	</g>
	<g>
		<path fill="#FFFFFF" d="M11.3,12.3L0.2,23.3c-0.3,0.3-0.3,0.7,0,1s0.7,0.3,1,0l11.6-11.6c0.3-0.3,0.3-0.7,0-1L1.2,0.2
			C1.1,0.1,0.9,0,0.7,0C0.5,0,0.3,0.1,0.2,0.2c-0.3,0.3-0.3,0.7,0,1L11.3,12.3z"/>
	</g>
</g>
</svg>
