<!-- Generator: Adobe Illustrator 19.1.0, SVG Export Plug-In  -->
<svg version="1.1"
	 xmlns="http://www.w3.org/2000/svg" xmlns:xlink="http://www.w3.org/1999/xlink" xmlns:a="http://ns.adobe.com/AdobeSVGViewerExtensions/3.0/"
	 x="0px" y="0px" width="29px" height="30px" viewBox="0 0 29 30" enable-background="new 0 0 29 30" xml:space="preserve">
<defs>
</defs>
<g id="XMLID_1_">
	<g id="XMLID_2_">
		<g id="XMLID_3_">
			<g id="XMLID_9_">
				<path id="XMLID_10_" fill="#FFFFFF" d="M3.1,16.8c-0.2,0-0.4-0.2-0.4-0.4c0-0.2,0.2-0.4,0.4-0.4l2.1,0l3.6-4.2
					c0.2-0.2,0.4-0.2,0.6,0c0,0,0.1,0.1,0.1,0.1l3.1,3.9l6.6-7.4c0.2-0.2,0.4-0.2,0.6,0l0,0l3.9,3.9l1.4-2.2
					c0.1-0.2,0.4-0.2,0.6-0.1c0.2,0.1,0.3,0.4,0.1,0.6l-1.7,2.6c0,0,0,0.1-0.1,0.1c-0.2,0.2-0.4,0.2-0.6,0l-4-4L13,16.6l0,0
					c0,0,0,0-0.1,0.1c-0.2,0.1-0.5,0.1-0.6-0.1l-3.1-3.9l-3.4,3.9l0,0c-0.1,0.1-0.2,0.2-0.3,0.2L3.1,16.8L3.1,16.8z M19.8,8.2
					L19.8,8.2L19.8,8.2z"/>
			</g>
			<path id="XMLID_8_" fill="#FFFFFF" d="M13.8,2.5c0.2,0,0.5,0.3,0.5,0.5c0,0.2-0.2,0.5-0.5,0.5H1v18h27v-18H15.6
				c-0.2,0-0.5-0.3-0.5-0.5s0.2-0.5,0.5-0.5h12.6h0c0.2,0,0.7,0.4,0.7,0.7v17.1v0c0,0.2-0.5,2.2-0.7,2.2h-28h0C0,22.5,0,20.6,0,20.3
				V3.2v0c0-0.2,0-0.7,0.3-0.7H13.8L13.8,2.5z"/>
			<path id="XMLID_7_" fill="#FFFFFF" d="M12,0.4C12,0.2,12.3,0,12.5,0C12.7,0,13,0.2,13,0.4v2.7c0,0.2-0.3,0.4-0.5,0.4
				S12,3.4,12,3.2V0.4z"/>
			<path id="XMLID_6_" fill="#FFFFFF" d="M14.5,23.2c0-0.2,0.2-0.4,0.4-0.4c0.2,0,0.4,0.2,0.4,0.4l0,4.5c0,0.2-0.2,0.4-0.4,0.4
				s-0.4-0.2-0.4-0.4L14.5,23.2z"/>
			<path id="XMLID_5_" fill="#FFFFFF" d="M8.2,23.1c0.1-0.2,0.3-0.4,0.6-0.3c0.2,0.1,0.4,0.3,0.3,0.6l-1.8,6.3
				c-0.1,0.2-0.3,0.4-0.6,0.3c-0.2-0.1-0.4-0.3-0.3-0.6L8.2,23.1z"/>
			<path id="XMLID_4_" fill="#FFFFFF" d="M20.8,23.4c-0.1-0.2,0.1-0.5,0.3-0.6c0.2-0.1,0.5,0.1,0.6,0.3l1.8,6.3
				c0.1,0.2-0.1,0.5-0.3,0.6c-0.2,0.1-0.5-0.1-0.6-0.3L20.8,23.4z"/>
		</g>
	</g>
</g>
</svg>