<!-- Generator: Adobe Illustrator 19.1.0, SVG Export Plug-In  -->
<svg version="1.1"
	 xmlns="http://www.w3.org/2000/svg" xmlns:xlink="http://www.w3.org/1999/xlink" xmlns:a="http://ns.adobe.com/AdobeSVGViewerExtensions/3.0/"
	 x="0px" y="0px" width="25px" height="25px" viewBox="0 0 25 25" enable-background="new 0 0 25 25" xml:space="preserve">
<defs>
</defs>
<g id="Header_mobile_copia">
	<g id="XMLID_1_">
		<path id="XMLID_2_" stroke-miterlimit="10" d="M24.2,22.8L18.4,17c1.4-1.7,2.3-4,2.3-6.4
			c0-5.6-4.5-10.1-10.1-10.1C5,0.5,0.5,5,0.5,10.6S5,20.7,10.6,20.7c2.4,0,4.7-0.9,6.4-2.3l5.8,5.8c0.4,0.4,1,0.4,1.4,0
			C24.6,23.8,24.6,23.2,24.2,22.8z M10.6,18.7c-4.5,0-8.1-3.6-8.1-8.1s3.6-8.1,8.1-8.1c4.5,0,8.1,3.6,8.1,8.1S15.1,18.7,10.6,18.7z"
			/>
	</g>
</g>
</svg>
