<svg xmlns="http://www.w3.org/2000/svg" x="0px" y="0px" width="16px" height="11.2px" viewBox="0 0 16 11.2" enable-background="new 0 0 16 11.2" xml:space="preserve">
	<path d="M15.7,1.8c-0.2-0.9-0.9-1.5-1.7-1.6C12,0,10,0,8,0C6,0,4,0,2,0.2C1.2,0.3,0.5,0.9,0.3,1.8
		C0,3,0,4.3,0,5.6s0,2.6,0.3,3.8c0.2,0.9,0.9,1.5,1.7,1.6c2,0.2,4,0.2,6,0.2c2,0,4,0,6-0.2c0.8-0.1,1.5-0.7,1.7-1.6
		C16,8.1,16,6.8,16,5.6C16,4.3,16,3,15.7,1.8z M5.9,8.1c0-1.8,0-3.5,0-5.3C7.6,3.7,9.3,4.5,11,5.4C9.3,6.3,7.6,7.2,5.9,8.1z"/>
</svg>
