<!-- Generator: Adobe Illustrator 19.1.0, SVG Export Plug-In  -->
<svg version="1.1"
	 xmlns="http://www.w3.org/2000/svg" xmlns:xlink="http://www.w3.org/1999/xlink" xmlns:a="http://ns.adobe.com/AdobeSVGViewerExtensions/3.0/"
	 x="0px" y="0px" width="36px" height="31.2px" viewBox="0 0 36 31.2" enable-background="new 0 0 36 31.2" xml:space="preserve">
<defs>
</defs>
<g id="XMLID_1_">
	<path id="XMLID_3_" fill="#FFFFFF" d="M35.3,8L28,0.7C27.5,0.3,26.9,0,26.2,0c-0.7,0-1.3,0.3-1.7,0.7l-1.7,1.7
		c-0.3,0.3-0.5,0.6-0.6,0.9l-8.1-1.4c0,0,0,0,0,0C10.5,1.2,7,3.5,6.2,7.2L5.9,9c-0.4,2,0.9,4,2.9,4.4c2,0.4,4-0.9,4.4-2.9l0.2-1.1
		l3.6,0.3l9.4,9.4l1.7,1.7c0.3,0.3,0.3,0.9,0,1.3c-0.3,0.3-0.9,0.3-1.3,0l-4.6-4.6c-0.3-0.3-0.8-0.3-1.2,0c-0.3,0.3-0.3,0.8,0,1.2
		l4.6,4.6c0.2,0.2,0.3,0.4,0.3,0.6s-0.1,0.5-0.3,0.6c-0.3,0.3-0.9,0.3-1.3,0L20,19.9c-0.3-0.3-0.8-0.3-1.2,0c-0.3,0.3-0.3,0.8,0,1.2
		l4.6,4.6c0.3,0.3,0.3,0.9,0,1.3c-0.2,0.2-0.4,0.3-0.6,0.3c-0.2,0-0.5-0.1-0.6-0.3l-4.6-4.6c-0.3-0.3-0.8-0.3-1.2,0
		c-0.3,0.3-0.3,0.8,0,1.2l4.6,4.6c0.3,0.3,0.3,0.9,0,1.3c-0.3,0.3-0.9,0.3-1.3,0L3.5,13.1L1.4,11c-0.3-0.3-0.8-0.3-1.2,0
		c-0.3,0.3-0.3,0.8,0,1.2l2.1,2.1l2.3,2.3l-1.3,1.3c-0.4,0.4-0.7,1-0.7,1.6S3,20.6,3.4,21l0.4,0.4c0.4,0.4,0.8,0.6,1.4,0.6
		c0.1,0.5,0.3,1,0.6,1.4l0.4,0.4c0.4,0.4,0.9,0.6,1.4,0.6c0,0.5,0.3,1,0.6,1.4l0.4,0.4c0.4,0.4,0.8,0.6,1.4,0.6
		c0.1,0.5,0.3,1,0.6,1.4l0.4,0.4c0.4,0.4,1,0.7,1.6,0.7s1.1-0.2,1.6-0.7l1.3-1.3l3.1,3.1c0.5,0.5,1.1,0.7,1.8,0.7
		c0.7,0,1.3-0.3,1.8-0.7c0.5-0.5,0.7-1,0.7-1.7c0.6,0,1.2-0.3,1.7-0.7c0.5-0.5,0.7-1.1,0.7-1.7c0.6,0,1.2-0.3,1.7-0.7
		c0.5-0.5,0.7-1.1,0.7-1.7c0.6,0,1.2-0.3,1.7-0.7c1-1,1-2.6,0-3.6l-1.1-1.1l4.1-4.1l2.9-2.9C36.2,10.6,36.2,9,35.3,8L35.3,8z
		 M4.6,19.9c-0.2-0.2-0.2-0.6,0-0.8l1.2-1.2L7,19.1l-1.2,1.2c-0.2,0.2-0.6,0.2-0.8,0L4.6,19.9z M7,22.3c-0.2-0.2-0.2-0.6,0-0.8
		l1.2-1.2l1.3,1.3l-1.2,1.2c-0.2,0.2-0.6,0.2-0.8,0L7,22.3z M9.4,24.7c-0.1-0.1-0.2-0.3-0.2-0.4s0.1-0.3,0.2-0.4l1.2-1.2l1.3,1.3
		l-1.2,1.2c-0.2,0.2-0.6,0.2-0.8,0L9.4,24.7L9.4,24.7z M13.1,27.5c-0.2,0.2-0.6,0.2-0.8,0l-0.4-0.4c-0.2-0.2-0.2-0.6,0-0.8l1.2-1.2
		l1.3,1.3L13.1,27.5z M27.1,17.4L18,8.3c-0.1-0.1-0.3-0.2-0.5-0.2l-4.6-0.4c0,0,0,0-0.1,0c-0.4,0-0.7,0.3-0.8,0.7l-0.4,1.8
		c-0.2,1.2-1.4,1.9-2.5,1.7c-0.6-0.1-1-0.4-1.4-0.9c-0.3-0.5-0.4-1-0.3-1.6l0.4-1.8c0.6-2.7,3.2-4.5,6-4c0,0,0,0,0,0l7.9,1.4l1,1
		l7.9,7.9L27.1,17.4z M34.1,10.4l-2.3,2.3l-7.9-7.9c-0.2-0.2-0.2-0.4-0.2-0.6c0-0.2,0.1-0.4,0.2-0.6l1.7-1.7
		c0.2-0.2,0.4-0.2,0.6-0.2c0.2,0,0.4,0.1,0.6,0.2l7.3,7.3c0.2,0.2,0.2,0.4,0.2,0.6C34.4,10,34.3,10.2,34.1,10.4L34.1,10.4z"/>
	<circle id="XMLID_2_" fill="#FFFFFF" cx="32.1" cy="10.1" r="0.8"/>
</g>
</svg>
