<!-- Generator: Adobe Illustrator 19.1.0, SVG Export Plug-In  -->
<svg version="1.1"
	 xmlns="http://www.w3.org/2000/svg" xmlns:xlink="http://www.w3.org/1999/xlink" xmlns:a="http://ns.adobe.com/AdobeSVGViewerExtensions/3.0/"
	 x="0px" y="0px" width="22.6px" height="22.6px" viewBox="0 0 22.6 22.6" enable-background="new 0 0 22.6 22.6"
	 xml:space="preserve">
<defs>
</defs>
<path d="M18.2,0H4.4C2,0,0,2,0,4.4v13.9c0,2.4,2,4.4,4.4,4.4h13.9c2.4,0,4.4-2,4.4-4.4V9V4.4C22.6,2,20.6,0,18.2,0z
	 M19.5,2.6H20v3.8l-3.8,0l0-3.8L19.5,2.6z M8.1,9c0.7-1,1.9-1.7,3.2-1.7c1.3,0,2.5,0.7,3.2,1.7c0.5,0.7,0.8,1.5,0.8,2.3
	c0,2.2-1.8,4-4,4c-2.2,0-4-1.8-4-4C7.3,10.4,7.6,9.6,8.1,9z M20.4,18.2c0,1.2-1,2.2-2.2,2.2H4.4c-1.2,0-2.2-1-2.2-2.2V9h3.4
	c-0.3,0.7-0.5,1.5-0.5,2.3c0,3.4,2.8,6.2,6.2,6.2c3.4,0,6.2-2.8,6.2-6.2c0-0.8-0.2-1.6-0.5-2.3h3.4V18.2z"/>
</svg>
