<svg xmlns="http://www.w3.org/2000/svg"
	 x="0px" y="0px" width="24px" height="25.5px" viewBox="0 0 24 25.5" enable-background="new 0 0 24 25.5" xml:space="preserve">
	<path fill="#676D6F" d="M19.4,16.4c-1.5,0-2.8,0.7-3.6,1.8l-7-3.9c0.2-0.5,0.3-1,0.3-1.5c0-0.5-0.1-1-0.3-1.5l7-3.9
		c0.8,1.1,2.1,1.8,3.6,1.8c2.5,0,4.6-2,4.6-4.6S21.9,0,19.4,0s-4.6,2-4.6,4.6c0,0.5,0.1,1,0.3,1.5l-7,3.9C7.3,8.9,6,8.2,4.6,8.2
		C2,8.2,0,10.2,0,12.7s2,4.6,4.6,4.6c1.5,0,2.8-0.7,3.6-1.8l7,3.9c-0.2,0.5-0.3,1-0.3,1.5c0,2.5,2,4.6,4.6,4.6s4.6-2,4.6-4.6
		S22,16.4,19.4,16.4z M19.4,1.4c1.7,0,3.1,1.4,3.1,3.1s-1.4,3.1-3.1,3.1s-3.1-1.4-3.1-3.1S17.7,1.4,19.4,1.4z M4.6,15.8
		c-1.7,0-3.1-1.4-3.1-3.1s1.4-3.1,3.1-3.1s3.1,1.4,3.1,3.1S6.3,15.8,4.6,15.8z M19.4,24c-1.7,0-3.1-1.4-3.1-3.1s1.4-3.1,3.1-3.1
		s3.1,1.4,3.1,3.1S21.2,24,19.4,24z"/>
</svg>