<!-- Generator: Adobe Illustrator 19.1.0, SVG Export Plug-In  -->
<svg version="1.1"
	 xmlns="http://www.w3.org/2000/svg" xmlns:xlink="http://www.w3.org/1999/xlink" xmlns:a="http://ns.adobe.com/AdobeSVGViewerExtensions/3.0/"
	 x="0px" y="0px" width="21.2px" height="21.3px" viewBox="0 0 21.2 21.3" enable-background="new 0 0 21.2 21.3"
	 xml:space="preserve">
<defs>
</defs>
<g>
	<path d="M19.6,0H1.6C0.7,0,0,0.7,0,1.5v18.3c0,0.8,0.7,1.5,1.6,1.5h18.1c0.9,0,1.6-0.7,1.6-1.5V1.5
		C21.2,0.7,20.5,0,19.6,0z M6.4,17.9H3.2V8.2h3.2V17.9z M4.8,6.9L4.8,6.9C3.7,6.9,3,6.2,3,5.2c0-0.9,0.7-1.7,1.8-1.7
		c1.1,0,1.8,0.7,1.8,1.7C6.6,6.2,5.9,6.9,4.8,6.9z M18,17.9h-3.2v-5.2c0-1.3-0.5-2.2-1.6-2.2c-0.9,0-1.4,0.6-1.6,1.2
		c-0.1,0.2-0.1,0.5-0.1,0.8v5.4H8.2c0,0,0-8.7,0-9.6h3.2v1.4C11.8,8.9,12.6,8,14.3,8c2.1,0,3.7,1.4,3.7,4.3V17.9z"/>
	<path d="M11.4,9.6L11.4,9.6C11.4,9.6,11.4,9.6,11.4,9.6L11.4,9.6z"/>
</g>
</svg>
