<!-- Generator: Adobe Illustrator 19.1.0, SVG Export Plug-In  -->
<svg version="1.1"
	 xmlns="http://www.w3.org/2000/svg" xmlns:xlink="http://www.w3.org/1999/xlink" xmlns:a="http://ns.adobe.com/AdobeSVGViewerExtensions/3.0/"
	 x="0px" y="0px" width="16.8px" height="13.2px" viewBox="0 0 16.8 13.2" enable-background="new 0 0 16.8 13.2"
	 xml:space="preserve">
<defs>
</defs>
<g>
	<g>
		<path d="M15.3,13.2c0.4,0,0.7-0.1,1-0.4l-4.8-4.8c-0.1,0.1-0.2,0.2-0.3,0.2c-0.4,0.3-0.6,0.5-0.9,0.6c-0.2,0.1-0.5,0.3-0.9,0.5
			c-0.4,0.2-0.7,0.2-1,0.2h0h0c-0.3,0-0.7-0.1-1-0.2C7,9.2,6.7,9.1,6.5,8.9C6.3,8.8,6,8.6,5.6,8.3C5.5,8.2,5.4,8.2,5.3,8.1l-4.8,4.8
			c0.3,0.2,0.6,0.4,1,0.4H15.3z"/>
		<path d="M0.9,5.1C0.6,4.8,0.3,4.6,0,4.3v7.2l4.2-4.2C3.4,6.7,2.3,6,0.9,5.1z"/>
		<path d="M15.9,5.1c-1.3,0.9-2.4,1.6-3.3,2.2l4.2,4.2V4.3C16.5,4.6,16.2,4.8,15.9,5.1z"/>
		<path d="M15.3,0H1.5C1,0,0.6,0.2,0.4,0.5C0.1,0.8,0,1.2,0,1.7C0,2.1,0.2,2.5,0.5,3c0.3,0.5,0.7,0.8,1.1,1.1
			c0.2,0.2,0.9,0.6,1.9,1.3C4.1,5.8,4.6,6.2,5,6.5C5.4,6.7,5.7,6.9,6,7.1c0,0,0.1,0.1,0.1,0.1c0.1,0,0.2,0.1,0.3,0.2
			c0.2,0.1,0.4,0.3,0.5,0.4C7,7.9,7.2,8,7.4,8.1c0.2,0.1,0.4,0.2,0.5,0.3c0.2,0.1,0.3,0.1,0.5,0.1h0h0c0.1,0,0.3,0,0.5-0.1
			c0.2-0.1,0.3-0.1,0.5-0.3C9.6,8,9.8,7.9,9.9,7.8c0.1-0.1,0.3-0.2,0.5-0.4c0.1-0.1,0.2-0.1,0.3-0.2c0.1,0,0.1-0.1,0.1-0.1
			C11,7,11.3,6.8,11.8,6.5c0.8-0.5,1.9-1.3,3.4-2.4c0.5-0.3,0.8-0.7,1.1-1.2c0.3-0.5,0.5-0.9,0.5-1.4c0-0.4-0.1-0.8-0.4-1.1
			C16.1,0.1,15.7,0,15.3,0z"/>
	</g>
</g>
</svg>
