<!-- Generator: Adobe Illustrator 19.1.0, SVG Export Plug-In  -->
<svg version="1.1"
	 xmlns="http://www.w3.org/2000/svg" xmlns:xlink="http://www.w3.org/1999/xlink" xmlns:a="http://ns.adobe.com/AdobeSVGViewerExtensions/3.0/"
	 x="0px" y="0px" width="30px" height="26.7px" viewBox="0 0 30 26.7" enable-background="new 0 0 30 26.7" xml:space="preserve">
<defs>
</defs>
<g id="XMLID_1_">
	<g id="XMLID_4_">
		<g id="XMLID_11_">
			<g id="XMLID_20_">
				<path id="XMLID_21_" fill="#FFFFFF" d="M20.5,11.8c0,0.5,0.4,0.8,0.9,0.8c0,0,0,0,0,0c0.2,0,0.4-0.1,0.6-0.3
					c0.2-0.2,0.2-0.4,0.2-0.6c0-0.2-0.1-0.4-0.3-0.6C21.7,11,21.5,11,21.3,11C20.8,11,20.5,11.3,20.5,11.8z"/>
			</g>
			<g id="XMLID_18_">
				<path id="XMLID_19_" fill="#FFFFFF" d="M7.9,11.8c0,0.5,0.4,0.8,0.9,0.8c0,0,0,0,0,0c0.2,0,0.4-0.1,0.6-0.3
					c0.2-0.2,0.2-0.4,0.2-0.6c0-0.2-0.1-0.4-0.3-0.6C9.2,11,9,11,8.8,11C8.3,11,7.9,11.3,7.9,11.8z"/>
			</g>
			<g id="XMLID_16_">
				<path id="XMLID_17_" fill="#FFFFFF" d="M13.1,18.3c-0.3,0-0.5,0.1-0.7,0.3s-0.3,0.4-0.3,0.7c0,0.3,0.1,0.5,0.3,0.7
					c0.2,0.2,0.4,0.3,0.7,0.3c0,0,0,0,0,0c0.3,0,0.5-0.1,0.7-0.3s0.3-0.4,0.3-0.7c0-0.3-0.1-0.5-0.3-0.7
					C13.6,18.4,13.3,18.3,13.1,18.3z"/>
			</g>
			<g id="XMLID_14_">
				<path id="XMLID_15_" fill="#FFFFFF" d="M16.8,18.3c-0.3,0-0.5,0.1-0.7,0.3c-0.2,0.2-0.3,0.4-0.3,0.7c0,0.5,0.4,0.9,0.9,0.9
					c0,0,0,0,0,0c0.3,0,0.5-0.1,0.7-0.3c0.2-0.2,0.3-0.4,0.3-0.7c0-0.3-0.1-0.5-0.3-0.7C17.3,18.4,17.1,18.3,16.8,18.3z"/>
			</g>
			<g id="XMLID_12_">
				<path id="XMLID_13_" fill="#FFFFFF" d="M0.9,3.8c0.8,2.3,1.7,3.9,2.8,4.6C4.7,9.2,5.9,9.2,7,8.3C7.3,8,7.5,8,7.5,7.9
					c0,0,0,0,0,0.1c0,0.9-0.6,2-1.2,3.3C6,12.1,5.6,13,5.2,14c0.2,0.3,0.5,0.6,0.6,1c0.4-1.2,0.9-2.4,1.4-3.4
					C7.9,10.3,8.5,9,8.5,7.9c0,0,0-0.1,0-0.1C8.3,7.3,8.1,7.1,7.8,7C7.4,6.9,7,7.1,6.4,7.5C5.8,8,5.2,8.1,4.7,7.9
					C2.8,7.2,1.5,2.8,1.1,1c2.1,0.4,3.6,0.9,4.7,1.4c0,0,0,0,0,0c2.9,1.5,2.8,3.3,2.8,4.3c0,0.1,0,0.1,0,0.2c0,0.3,0.2,0.5,0.5,0.5
					h0c0.3,0,0.5-0.2,0.5-0.5c0-0.1,0-0.1,0-0.2c0-0.4,0-1-0.2-1.7c0.5,0.3,1,0.6,1.6,0.8c0.1,0,0.2,0,0.3,0C12,5.8,13.4,5.6,15,5.6
					c1.6,0,3,0.1,3.8,0.3c0.1,0,0.2,0,0.3,0c0.7-0.2,1.2-0.5,1.6-0.8c-0.2,0.7-0.2,1.3-0.2,1.7c0,0.1,0,0.1,0,0.2
					c0,0.3,0.2,0.5,0.5,0.5h0c0.3,0,0.5-0.2,0.5-0.5c0-0.1,0-0.1,0-0.2c0-1-0.1-2.8,2.8-4.3c0,0,0,0,0,0c1.1-0.5,2.5-1,4.7-1.4
					c-0.2,0.7-0.5,1.8-0.9,3c-0.8,2.2-1.8,3.5-2.7,3.9c-0.5,0.2-1.1,0.1-1.7-0.4c-0.6-0.5-1-0.6-1.5-0.5c-0.2,0.1-0.5,0.3-0.7,0.7
					c0,0,0,0.1,0,0.1c0,1.1,0.6,2.3,1.2,3.8c0.4,0.8,0.8,1.7,1.1,2.6c0.2-0.3,0.5-0.5,0.7-0.7c-0.3-0.8-0.7-1.6-1-2.3
					C23,10,22.5,8.9,22.4,8c0,0,0,0,0-0.1c0,0,0.2,0,0.6,0.3c1.1,0.9,2.2,0.9,3.3,0.1c1-0.8,1.9-2.3,2.8-4.6
					c0.3-0.9,0.5-1.7,0.7-2.2C30,0.5,30,0.4,30,0.3C29.9,0.1,29.7,0,29.5,0c-2.6,0.4-4.4,1-5.6,1.6c0,0,0,0,0,0c0,0-0.1,0-0.1,0
					c-1.2,0.6-2,1.3-2.6,1.9c-0.7,0.6-1.3,1.1-2.2,1.5C18,4.8,16.6,4.7,15,4.7c-1.6,0-3,0.1-3.9,0.3c-0.9-0.3-1.5-0.9-2.2-1.5
					C8.2,3,7.5,2.3,6.3,1.7c0,0-0.1,0-0.1,0c0,0,0,0,0,0C4.9,1,3.2,0.4,0.5,0C0.3,0,0.1,0.1,0,0.3C0,0.4,0,0.5,0.2,1.5
					C0.4,2.1,0.6,2.9,0.9,3.8z"/>
			</g>
		</g>
		<g id="XMLID_9_">
			<ellipse id="XMLID_10_" fill="#FFFFFF" cx="20.9" cy="23.4" rx="0.1" ry="0"/>
		</g>
		<g id="XMLID_5_">
			<path id="XMLID_6_" fill="#FFFFFF" d="M11.8,22.4c-0.5,0-0.9-0.1-1.2-0.4c-0.4-0.3-0.6-0.9-0.6-1.7c0-2.7,2.2-5,5-5
				c2.7,0,5,2.2,5,5c0,0.8-0.2,1.3-0.6,1.7c-0.6,0.5-1.5,0.4-2.5,0.2c-0.6-0.1-1.2-0.2-1.8-0.2c-0.6,0-1.3,0.1-1.8,0.2
				C12.7,22.4,12.2,22.4,11.8,22.4z M15,21c0.7,0,1.4,0.1,2,0.2c0.7,0.1,1.5,0.2,1.7,0c0.1-0.1,0.2-0.4,0.2-0.9
				c0-2.2-1.8-3.9-3.9-3.9s-3.9,1.8-3.9,3.9c0,0.4,0.1,0.7,0.2,0.9c0.2,0.2,1,0.1,1.7,0C13.6,21.2,14.3,21,15,21z"/>
		</g>
	</g>
	<path id="XMLID_3_" fill="none" stroke="#FFFFFF" stroke-miterlimit="10" d="M24.1,13.5c0,0,4.1,9-3,10.7c0,0-3.2,2-6.1,2"/>
	<path id="XMLID_2_" fill="none" stroke="#FFFFFF" stroke-miterlimit="10" d="M6,13.5c0,0-4.2,9,2.9,10.7c0,0,3.3,2,6.1,2"/>
</g>
</svg>