<!-- Generator: Adobe Illustrator 19.1.0, SVG Export Plug-In  -->
<svg version="1.1"
	 xmlns="http://www.w3.org/2000/svg" xmlns:xlink="http://www.w3.org/1999/xlink" xmlns:a="http://ns.adobe.com/AdobeSVGViewerExtensions/3.0/"
	 x="0px" y="0px" width="16px" height="14.8px" viewBox="0 0 16 14.8" enable-background="new 0 0 16 14.8" xml:space="preserve">
<defs>
</defs>
<g id="XMLID_1_">
	<g id="XMLID_2_">
		<path id="XMLID_4_" d="M15.5,7.2c-0.3,0-0.5,0.2-0.5,0.5v4.2c0,1.1-0.9,2.1-2.1,2.1H3c-1.1,0-2.1-0.9-2.1-2.1V7.6
			c0-0.3-0.2-0.5-0.5-0.5S0,7.4,0,7.6v4.2c0,1.6,1.3,3,3,3H13c1.6,0,3-1.3,3-3V7.7C16,7.4,15.8,7.2,15.5,7.2z"/>
		<path id="XMLID_3_" d="M7.7,11.2c0.1,0.1,0.2,0.1,0.3,0.1s0.2,0,0.3-0.1l2.9-2.9c0.2-0.2,0.2-0.5,0-0.6
			c-0.2-0.2-0.5-0.2-0.6,0L8.5,9.8V0.5C8.5,0.2,8.3,0,8,0C7.7,0,7.5,0.2,7.5,0.5v9.3L5.4,7.6c-0.2-0.2-0.5-0.2-0.6,0
			c-0.2,0.2-0.2,0.5,0,0.6L7.7,11.2z"/>
	</g>
</g>
</svg>
