<svg xmlns="http://www.w3.org/2000/svg" x="0px" y="0px" width="16px" height="10.2px" viewBox="0 0 16 10.2">
<path d="M5.6,6.2h2.5c-0.4,1.2-1.6,2.1-3,2.1c-1.7,0-3.1-1.4-3.1-3C1.9,3.4,3.3,1.9,5.1,1.9 c0.8,0,1.6,0.3,2.1,0.8c0.1,0.1,0.3,0.1,0.5,0l0.9-0.9c0.1-0.1,0.1-0.4,0-0.5C7.7,0.6,6.5,0,5.2,0C2.4-0.1,0,2.3,0,5.1 c0,2.8,2.3,5.2,5.1,5.2c2.7,0,5-2.1,5.1-4.8c0,0,0-1.2,0-1.2H5.6c-0.2,0-0.3,0.2-0.3,0.3v1.3C5.3,6,5.4,6.2,5.6,6.2z"/>
<path d="M14.5,4.3V3.1c0-0.2-0.1-0.3-0.3-0.3h-1c-0.2,0-0.3,0.1-0.3,0.3v1.2h-1.2 c-0.2,0-0.3,0.1-0.3,0.3v1c0,0.2,0.1,0.3,0.3,0.3h1.2v1.2c0,0.2,0.1,0.3,0.3,0.3h1c0.2,0,0.3-0.1,0.3-0.3V6h1.2 C15.9,6,16,5.8,16,5.7v-1c0-0.2-0.1-0.3-0.3-0.3L14.5,4.3L14.5,4.3z"/>
</svg>
