<!-- Generator: Adobe Illustrator 19.1.0, SVG Export Plug-In  -->
<svg version="1.1"
	 xmlns="http://www.w3.org/2000/svg" xmlns:xlink="http://www.w3.org/1999/xlink" xmlns:a="http://ns.adobe.com/AdobeSVGViewerExtensions/3.0/"
	 x="0px" y="0px" width="36px" height="34.6px" viewBox="0 0 36 34.6" enable-background="new 0 0 36 34.6" xml:space="preserve">
<defs>
</defs>
<g id="XMLID_1_">
	<g id="XMLID_2_">
		<path id="XMLID_17_" fill="#FFFFFF" d="M18,7.9c1.5,0,2.6-1.2,2.6-2.6c0-1.5-1.1-2.6-2.6-2.6c-1.5,0-2.6,1.1-2.6,2.6
			C15.4,6.7,16.5,7.9,18,7.9z M18,4c0.7,0,1.1,0.5,1.1,1.1c0,0.6-0.5,1.1-1.1,1.1c-0.6,0-1.1-0.5-1.1-1.1C16.9,4.6,17.3,4,18,4z"/>
		<path id="XMLID_14_" fill="#FFFFFF" d="M7.4,22.4c-1.5,0-2.6,1.1-2.6,2.6s1.1,2.6,2.6,2.6c1.4,0,2.6-1.1,2.6-2.6
			S8.9,22.4,7.4,22.4z M7.4,26.1c-0.6,0-1.1-0.5-1.1-1.1s0.5-1.1,1.1-1.1c0.6,0,1.1,0.5,1.1,1.1S8.1,26.1,7.4,26.1z"/>
		<path id="XMLID_6_" fill="#FFFFFF" d="M28.6,19.8c-2.4,0-4.6,1.1-5.9,2.9l-4-3.6v-4.2c3.7-0.4,6.7-3.6,6.7-7.4
			C25.4,3.3,22.1,0,18,0s-7.4,3.4-7.4,7.4c0,3.9,3,7.1,6.7,7.4V19l-4,3.6c-1.4-1.8-3.5-2.9-5.9-2.9C3.3,19.8,0,23,0,27.2
			s3.4,7.4,7.4,7.4s7.4-3.3,7.4-7.4c0-1.2-0.3-2.3-0.7-3.3l3.9-3.6l3.9,3.6c-0.5,1-0.7,2.1-0.7,3.3c0,4.1,3.4,7.4,7.4,7.4
			c4.1,0,7.4-3.3,7.4-7.4S32.7,19.8,28.6,19.8L28.6,19.8z M4.1,32.1c0.4-1.2,1.4-2,2.7-2h1.4c1.2,0,2.3,0.8,2.7,2
			c-1,0.6-2.1,1-3.3,1C6.2,33.2,5,32.8,4.1,32.1z M11.9,31.1c-0.7-1.4-2.2-2.3-3.8-2.3H6.7c-1.7,0-3.1,0.9-3.8,2.3
			C2,30,1.5,28.7,1.5,27.2c0-3.3,2.7-6,6-6c3.2,0,6,2.7,6,6C13.4,28.7,12.8,30.1,11.9,31.1L11.9,31.1z M18,13.4
			c-1.2,0-2.4-0.4-3.3-1c0.4-1.2,1.4-2,2.7-2h1.4c1.2,0,2.3,0.8,2.7,2C20.4,13,19.2,13.4,18,13.4z M12,7.4c0-3.3,2.7-6,6-6
			s6,2.7,6,6c0,1.5-0.6,2.9-1.5,3.9C21.8,10,20.3,9,18.7,9h-1.4c-1.7,0-3.1,0.9-3.8,2.3C12.6,10.3,12,8.9,12,7.4z M25.2,32.1
			c0.4-1.2,1.4-2,2.7-2h1.4c1.2,0,2.3,0.8,2.7,2c-1,0.6-2.1,1-3.3,1S26.2,32.8,25.2,32.1z M33.1,31.1c-0.7-1.4-2.2-2.3-3.8-2.3h-1.4
			c-1.7,0-3.1,0.9-3.8,2.3c-0.9-1.1-1.5-2.4-1.5-3.9c0-3.3,2.7-6,6-6s6,2.7,6,6C34.5,28.7,34,30.1,33.1,31.1L33.1,31.1z"/>
		<path id="XMLID_3_" fill="#FFFFFF" d="M28.6,22.4c-1.5,0-2.6,1.1-2.6,2.6s1.1,2.6,2.6,2.6c1.5,0,2.6-1.1,2.6-2.6
			S30,22.4,28.6,22.4z M28.6,26.1c-0.6,0-1.1-0.5-1.1-1.1s0.5-1.1,1.1-1.1c0.7,0,1.1,0.5,1.1,1.1S29.3,26.1,28.6,26.1z"/>
	</g>
</g>
</svg>
