<svg xmlns="http://www.w3.org/2000/svg" x="0px" y="0px" width="16px" height="13.5px" viewBox="0 0 16 13.5">
<path d="M15.3,0.7C15,0.2,14.4,0,13.7,0c-2-0.1-3.5,1-4.3,3.2c0,0.1,0,0.2,0.1,0.3
	c0.1,0.1,0.2,0.1,0.3,0.1c0.2-0.1,0.5-0.1,0.7-0.1c0.3,0,0.7,0.1,0.9,0.3c0.2,0.2,0.2,0.5,0.1,0.9c-0.1,0.3-0.6,1.2-1.2,2.1
	C9.5,8,9.1,8.5,9,8.5c-0.4,0-1.8-6.1-1.8-6.2C6.8,0.9,6.6,0.2,5.4,0.2c-1,0-3.2,1.8-4.9,3.3C0.3,3.6,0.2,3.7,0.1,3.8
	C0,3.9,0,4.2,0.1,4.4l0.3,0.4C0.6,5,0.8,5,1,4.9l0,0C1.6,4.4,2.1,4.1,2.6,4C3,4,3.4,4.7,3.9,6.4c0.9,3.2,2.2,7.1,3.6,7.1
	c1.4,0,3.2-1.2,5.4-4.1c2-2.6,3.1-4.7,3.2-6.2l0,0C16,2,15.8,1.2,15.3,0.7z"/>
</svg>
