<!-- Generator: Adobe Illustrator 19.1.0, SVG Export Plug-In  -->
<svg version="1.1"
	 xmlns="http://www.w3.org/2000/svg" xmlns:xlink="http://www.w3.org/1999/xlink" xmlns:a="http://ns.adobe.com/AdobeSVGViewerExtensions/3.0/"
	 x="0px" y="0px" width="22.3px" height="18.1px" viewBox="0 0 22.3 18.1" enable-background="new 0 0 22.3 18.1"
	 xml:space="preserve">
<defs>
</defs>
<path id="XMLID_1_" d="M20,4.5c0,0.2,0,0.4,0,0.6c0,6-4.6,13-13,13c-2.6,0-5-0.8-7-2.1c0.4,0,0.7,0.1,1.1,0.1
	c2.1,0,4.1-0.7,5.7-2c-2,0-3.7-1.4-4.3-3.2c0.3,0.1,0.6,0.1,0.9,0.1c0.4,0,0.8-0.1,1.2-0.2c-2.1-0.4-3.7-2.3-3.7-4.5c0,0,0,0,0-0.1
	C1.5,6.7,2.2,6.9,3,6.9c-1.2-0.8-2-2.2-2-3.8c0-0.8,0.2-1.6,0.6-2.3C3.8,3.6,7.2,5.4,11,5.6c-0.1-0.3-0.1-0.7-0.1-1
	c0-2.5,2-4.6,4.6-4.6c1.3,0,2.5,0.6,3.3,1.4c1-0.2,2-0.6,2.9-1.1c-0.3,1.1-1.1,2-2,2.5c0.9-0.1,1.8-0.4,2.6-0.7
	C21.7,3.1,20.9,3.9,20,4.5L20,4.5z"/>
</svg>
