<!-- Generator: Adobe Illustrator 19.1.0, SVG Export Plug-In  -->
<svg version="1.1"
	 xmlns="http://www.w3.org/2000/svg" xmlns:xlink="http://www.w3.org/1999/xlink" xmlns:a="http://ns.adobe.com/AdobeSVGViewerExtensions/3.0/"
	 x="0px" y="0px" width="37.6px" height="19px" viewBox="0 0 37.6 19" enable-background="new 0 0 37.6 19" xml:space="preserve">
<defs>
</defs>
<g>
	
		<path fill="none" stroke="#FFFFFF" stroke-width="1.59" stroke-linecap="round" stroke-linejoin="round" stroke-miterlimit="10" d="
		M34.8,12.2c0-2.6-2.1-4.7-4.7-4.7s-4.7,2.1-4.7,4.7"/>
	<circle fill="none" stroke="#FFFFFF" stroke-width="1.59" stroke-miterlimit="10" cx="30.1" cy="2.6" r="1.8"/>
	
		<path fill="none" stroke="#FFFFFF" stroke-width="1.59" stroke-linecap="round" stroke-linejoin="round" stroke-miterlimit="10" d="
		M23.2,9.6c-0.8-1.3-2.3-2.1-3.9-2.1c-1.6,0-3.1,0.8-3.9,2.1"/>
	<circle fill="none" stroke="#FFFFFF" stroke-width="1.59" stroke-miterlimit="10" cx="19.3" cy="2.6" r="1.8"/>
	
		<path fill="none" stroke="#FFFFFF" stroke-width="1.59" stroke-linecap="round" stroke-linejoin="round" stroke-miterlimit="10" d="
		M13.2,12.2c0-2.6-2.1-4.7-4.7-4.7s-4.7,2.1-4.7,4.7"/>
	<circle fill="none" stroke="#FFFFFF" stroke-width="1.59" stroke-miterlimit="10" cx="8.5" cy="2.6" r="1.8"/>
	<path fill="none" stroke="#FFFFFF" stroke-width="1.59" stroke-miterlimit="10" d="M35.1,18.2H2.5c-0.9,0-1.7-0.8-1.7-1.7v-0.6
		c0-0.9,0.8-1.7,1.7-1.7h32.6c0.9,0,1.7,0.8,1.7,1.7v0.6C36.8,17.4,36,18.2,35.1,18.2z"/>
</g>
</svg>
