<svg style="display: none;"><symbol viewBox="0 0 29 30" id="shape-icon-analisis-sectorial"><title>icon-analisis-sectorial</title>  <g id="icon-analisis-sectorial-XMLID_1_"> <g id="icon-analisis-sectorial-XMLID_2_"> <g id="icon-analisis-sectorial-XMLID_3_"> <g id="icon-analisis-sectorial-XMLID_9_"> <path id="icon-analisis-sectorial-XMLID_10_" fill="#FFFFFF" d="M3.1,16.8c-0.2,0-0.4-0.2-0.4-0.4c0-0.2,0.2-0.4,0.4-0.4l2.1,0l3.6-4.2
					c0.2-0.2,0.4-0.2,0.6,0c0,0,0.1,0.1,0.1,0.1l3.1,3.9l6.6-7.4c0.2-0.2,0.4-0.2,0.6,0l0,0l3.9,3.9l1.4-2.2
					c0.1-0.2,0.4-0.2,0.6-0.1c0.2,0.1,0.3,0.4,0.1,0.6l-1.7,2.6c0,0,0,0.1-0.1,0.1c-0.2,0.2-0.4,0.2-0.6,0l-4-4L13,16.6l0,0
					c0,0,0,0-0.1,0.1c-0.2,0.1-0.5,0.1-0.6-0.1l-3.1-3.9l-3.4,3.9l0,0c-0.1,0.1-0.2,0.2-0.3,0.2L3.1,16.8L3.1,16.8z M19.8,8.2
					L19.8,8.2L19.8,8.2z"/> </g> <path id="icon-analisis-sectorial-XMLID_8_" fill="#FFFFFF" d="M13.8,2.5c0.2,0,0.5,0.3,0.5,0.5c0,0.2-0.2,0.5-0.5,0.5H1v18h27v-18H15.6
				c-0.2,0-0.5-0.3-0.5-0.5s0.2-0.5,0.5-0.5h12.6h0c0.2,0,0.7,0.4,0.7,0.7v17.1v0c0,0.2-0.5,2.2-0.7,2.2h-28h0C0,22.5,0,20.6,0,20.3
				V3.2v0c0-0.2,0-0.7,0.3-0.7H13.8L13.8,2.5z"/> <path id="icon-analisis-sectorial-XMLID_7_" fill="#FFFFFF" d="M12,0.4C12,0.2,12.3,0,12.5,0C12.7,0,13,0.2,13,0.4v2.7c0,0.2-0.3,0.4-0.5,0.4
				S12,3.4,12,3.2V0.4z"/> <path id="icon-analisis-sectorial-XMLID_6_" fill="#FFFFFF" d="M14.5,23.2c0-0.2,0.2-0.4,0.4-0.4c0.2,0,0.4,0.2,0.4,0.4l0,4.5c0,0.2-0.2,0.4-0.4,0.4
				s-0.4-0.2-0.4-0.4L14.5,23.2z"/> <path id="icon-analisis-sectorial-XMLID_5_" fill="#FFFFFF" d="M8.2,23.1c0.1-0.2,0.3-0.4,0.6-0.3c0.2,0.1,0.4,0.3,0.3,0.6l-1.8,6.3
				c-0.1,0.2-0.3,0.4-0.6,0.3c-0.2-0.1-0.4-0.3-0.3-0.6L8.2,23.1z"/> <path id="icon-analisis-sectorial-XMLID_4_" fill="#FFFFFF" d="M20.8,23.4c-0.1-0.2,0.1-0.5,0.3-0.6c0.2-0.1,0.5,0.1,0.6,0.3l1.8,6.3
				c0.1,0.2-0.1,0.5-0.3,0.6c-0.2,0.1-0.5-0.1-0.6-0.3L20.8,23.4z"/> </g> </g> </g> </symbol><symbol viewBox="0 0 29 30" id="shape-icon-analisis"><title>icon-analisis</title>  <g id="icon-analisis-XMLID_1_"> <g id="icon-analisis-XMLID_2_"> <g id="icon-analisis-XMLID_3_"> <g id="icon-analisis-XMLID_9_"> <path id="icon-analisis-XMLID_10_" fill="#FFFFFF" d="M3.1,16.8c-0.2,0-0.4-0.2-0.4-0.4c0-0.2,0.2-0.4,0.4-0.4l2.1,0l3.6-4.2
					c0.2-0.2,0.4-0.2,0.6,0c0,0,0.1,0.1,0.1,0.1l3.1,3.9l6.6-7.4c0.2-0.2,0.4-0.2,0.6,0l0,0l3.9,3.9l1.4-2.2
					c0.1-0.2,0.4-0.2,0.6-0.1c0.2,0.1,0.3,0.4,0.1,0.6l-1.7,2.6c0,0,0,0.1-0.1,0.1c-0.2,0.2-0.4,0.2-0.6,0l-4-4L13,16.6l0,0
					c0,0,0,0-0.1,0.1c-0.2,0.1-0.5,0.1-0.6-0.1l-3.1-3.9l-3.4,3.9l0,0c-0.1,0.1-0.2,0.2-0.3,0.2L3.1,16.8L3.1,16.8z M19.8,8.2
					L19.8,8.2L19.8,8.2z"/> </g> <path id="icon-analisis-XMLID_8_" fill="#FFFFFF" d="M13.8,2.5c0.2,0,0.5,0.3,0.5,0.5c0,0.2-0.2,0.5-0.5,0.5H1v18h27v-18H15.6
				c-0.2,0-0.5-0.3-0.5-0.5s0.2-0.5,0.5-0.5h12.6h0c0.2,0,0.7,0.4,0.7,0.7v17.1v0c0,0.2-0.5,2.2-0.7,2.2h-28h0C0,22.5,0,20.6,0,20.3
				V3.2v0c0-0.2,0-0.7,0.3-0.7H13.8L13.8,2.5z"/> <path id="icon-analisis-XMLID_7_" fill="#FFFFFF" d="M12,0.4C12,0.2,12.3,0,12.5,0C12.7,0,13,0.2,13,0.4v2.7c0,0.2-0.3,0.4-0.5,0.4
				S12,3.4,12,3.2V0.4z"/> <path id="icon-analisis-XMLID_6_" fill="#FFFFFF" d="M14.5,23.2c0-0.2,0.2-0.4,0.4-0.4c0.2,0,0.4,0.2,0.4,0.4l0,4.5c0,0.2-0.2,0.4-0.4,0.4
				s-0.4-0.2-0.4-0.4L14.5,23.2z"/> <path id="icon-analisis-XMLID_5_" fill="#FFFFFF" d="M8.2,23.1c0.1-0.2,0.3-0.4,0.6-0.3c0.2,0.1,0.4,0.3,0.3,0.6l-1.8,6.3
				c-0.1,0.2-0.3,0.4-0.6,0.3c-0.2-0.1-0.4-0.3-0.3-0.6L8.2,23.1z"/> <path id="icon-analisis-XMLID_4_" fill="#FFFFFF" d="M20.8,23.4c-0.1-0.2,0.1-0.5,0.3-0.6c0.2-0.1,0.5,0.1,0.6,0.3l1.8,6.3
				c0.1,0.2-0.1,0.5-0.3,0.6c-0.2,0.1-0.5-0.1-0.6-0.3L20.8,23.4z"/> </g> </g> </g> </symbol><symbol viewBox="0 0 36 31.2" id="shape-icon-asociados"><title>icon-asociados</title>  <g id="icon-asociados-XMLID_1_"> <path id="icon-asociados-XMLID_3_" fill="#FFFFFF" d="M35.3,8L28,0.7C27.5,0.3,26.9,0,26.2,0c-0.7,0-1.3,0.3-1.7,0.7l-1.7,1.7
		c-0.3,0.3-0.5,0.6-0.6,0.9l-8.1-1.4c0,0,0,0,0,0C10.5,1.2,7,3.5,6.2,7.2L5.9,9c-0.4,2,0.9,4,2.9,4.4c2,0.4,4-0.9,4.4-2.9l0.2-1.1
		l3.6,0.3l9.4,9.4l1.7,1.7c0.3,0.3,0.3,0.9,0,1.3c-0.3,0.3-0.9,0.3-1.3,0l-4.6-4.6c-0.3-0.3-0.8-0.3-1.2,0c-0.3,0.3-0.3,0.8,0,1.2
		l4.6,4.6c0.2,0.2,0.3,0.4,0.3,0.6s-0.1,0.5-0.3,0.6c-0.3,0.3-0.9,0.3-1.3,0L20,19.9c-0.3-0.3-0.8-0.3-1.2,0c-0.3,0.3-0.3,0.8,0,1.2
		l4.6,4.6c0.3,0.3,0.3,0.9,0,1.3c-0.2,0.2-0.4,0.3-0.6,0.3c-0.2,0-0.5-0.1-0.6-0.3l-4.6-4.6c-0.3-0.3-0.8-0.3-1.2,0
		c-0.3,0.3-0.3,0.8,0,1.2l4.6,4.6c0.3,0.3,0.3,0.9,0,1.3c-0.3,0.3-0.9,0.3-1.3,0L3.5,13.1L1.4,11c-0.3-0.3-0.8-0.3-1.2,0
		c-0.3,0.3-0.3,0.8,0,1.2l2.1,2.1l2.3,2.3l-1.3,1.3c-0.4,0.4-0.7,1-0.7,1.6S3,20.6,3.4,21l0.4,0.4c0.4,0.4,0.8,0.6,1.4,0.6
		c0.1,0.5,0.3,1,0.6,1.4l0.4,0.4c0.4,0.4,0.9,0.6,1.4,0.6c0,0.5,0.3,1,0.6,1.4l0.4,0.4c0.4,0.4,0.8,0.6,1.4,0.6
		c0.1,0.5,0.3,1,0.6,1.4l0.4,0.4c0.4,0.4,1,0.7,1.6,0.7s1.1-0.2,1.6-0.7l1.3-1.3l3.1,3.1c0.5,0.5,1.1,0.7,1.8,0.7
		c0.7,0,1.3-0.3,1.8-0.7c0.5-0.5,0.7-1,0.7-1.7c0.6,0,1.2-0.3,1.7-0.7c0.5-0.5,0.7-1.1,0.7-1.7c0.6,0,1.2-0.3,1.7-0.7
		c0.5-0.5,0.7-1.1,0.7-1.7c0.6,0,1.2-0.3,1.7-0.7c1-1,1-2.6,0-3.6l-1.1-1.1l4.1-4.1l2.9-2.9C36.2,10.6,36.2,9,35.3,8L35.3,8z
		 M4.6,19.9c-0.2-0.2-0.2-0.6,0-0.8l1.2-1.2L7,19.1l-1.2,1.2c-0.2,0.2-0.6,0.2-0.8,0L4.6,19.9z M7,22.3c-0.2-0.2-0.2-0.6,0-0.8
		l1.2-1.2l1.3,1.3l-1.2,1.2c-0.2,0.2-0.6,0.2-0.8,0L7,22.3z M9.4,24.7c-0.1-0.1-0.2-0.3-0.2-0.4s0.1-0.3,0.2-0.4l1.2-1.2l1.3,1.3
		l-1.2,1.2c-0.2,0.2-0.6,0.2-0.8,0L9.4,24.7L9.4,24.7z M13.1,27.5c-0.2,0.2-0.6,0.2-0.8,0l-0.4-0.4c-0.2-0.2-0.2-0.6,0-0.8l1.2-1.2
		l1.3,1.3L13.1,27.5z M27.1,17.4L18,8.3c-0.1-0.1-0.3-0.2-0.5-0.2l-4.6-0.4c0,0,0,0-0.1,0c-0.4,0-0.7,0.3-0.8,0.7l-0.4,1.8
		c-0.2,1.2-1.4,1.9-2.5,1.7c-0.6-0.1-1-0.4-1.4-0.9c-0.3-0.5-0.4-1-0.3-1.6l0.4-1.8c0.6-2.7,3.2-4.5,6-4c0,0,0,0,0,0l7.9,1.4l1,1
		l7.9,7.9L27.1,17.4z M34.1,10.4l-2.3,2.3l-7.9-7.9c-0.2-0.2-0.2-0.4-0.2-0.6c0-0.2,0.1-0.4,0.2-0.6l1.7-1.7
		c0.2-0.2,0.4-0.2,0.6-0.2c0.2,0,0.4,0.1,0.6,0.2l7.3,7.3c0.2,0.2,0.2,0.4,0.2,0.6C34.4,10,34.3,10.2,34.1,10.4L34.1,10.4z"/> <circle id="icon-asociados-XMLID_2_" fill="#FFFFFF" cx="32.1" cy="10.1" r="0.8"/> </g> </symbol><symbol viewBox="0 0 30 26.7" id="shape-icon-carne-de-cerdo"><title>icon-carne-de-cerdo</title>  <g id="icon-carne-de-cerdo-XMLID_1_"> <g id="icon-carne-de-cerdo-XMLID_4_"> <g id="icon-carne-de-cerdo-XMLID_11_"> <g id="icon-carne-de-cerdo-XMLID_20_"> <path id="icon-carne-de-cerdo-XMLID_21_" fill="#FFFFFF" d="M20.5,11.8c0,0.5,0.4,0.8,0.9,0.8c0,0,0,0,0,0c0.2,0,0.4-0.1,0.6-0.3
					c0.2-0.2,0.2-0.4,0.2-0.6c0-0.2-0.1-0.4-0.3-0.6C21.7,11,21.5,11,21.3,11C20.8,11,20.5,11.3,20.5,11.8z"/> </g> <g id="icon-carne-de-cerdo-XMLID_18_"> <path id="icon-carne-de-cerdo-XMLID_19_" fill="#FFFFFF" d="M7.9,11.8c0,0.5,0.4,0.8,0.9,0.8c0,0,0,0,0,0c0.2,0,0.4-0.1,0.6-0.3
					c0.2-0.2,0.2-0.4,0.2-0.6c0-0.2-0.1-0.4-0.3-0.6C9.2,11,9,11,8.8,11C8.3,11,7.9,11.3,7.9,11.8z"/> </g> <g id="icon-carne-de-cerdo-XMLID_16_"> <path id="icon-carne-de-cerdo-XMLID_17_" fill="#FFFFFF" d="M13.1,18.3c-0.3,0-0.5,0.1-0.7,0.3s-0.3,0.4-0.3,0.7c0,0.3,0.1,0.5,0.3,0.7
					c0.2,0.2,0.4,0.3,0.7,0.3c0,0,0,0,0,0c0.3,0,0.5-0.1,0.7-0.3s0.3-0.4,0.3-0.7c0-0.3-0.1-0.5-0.3-0.7
					C13.6,18.4,13.3,18.3,13.1,18.3z"/> </g> <g id="icon-carne-de-cerdo-XMLID_14_"> <path id="icon-carne-de-cerdo-XMLID_15_" fill="#FFFFFF" d="M16.8,18.3c-0.3,0-0.5,0.1-0.7,0.3c-0.2,0.2-0.3,0.4-0.3,0.7c0,0.5,0.4,0.9,0.9,0.9
					c0,0,0,0,0,0c0.3,0,0.5-0.1,0.7-0.3c0.2-0.2,0.3-0.4,0.3-0.7c0-0.3-0.1-0.5-0.3-0.7C17.3,18.4,17.1,18.3,16.8,18.3z"/> </g> <g id="icon-carne-de-cerdo-XMLID_12_"> <path id="icon-carne-de-cerdo-XMLID_13_" fill="#FFFFFF" d="M0.9,3.8c0.8,2.3,1.7,3.9,2.8,4.6C4.7,9.2,5.9,9.2,7,8.3C7.3,8,7.5,8,7.5,7.9
					c0,0,0,0,0,0.1c0,0.9-0.6,2-1.2,3.3C6,12.1,5.6,13,5.2,14c0.2,0.3,0.5,0.6,0.6,1c0.4-1.2,0.9-2.4,1.4-3.4
					C7.9,10.3,8.5,9,8.5,7.9c0,0,0-0.1,0-0.1C8.3,7.3,8.1,7.1,7.8,7C7.4,6.9,7,7.1,6.4,7.5C5.8,8,5.2,8.1,4.7,7.9
					C2.8,7.2,1.5,2.8,1.1,1c2.1,0.4,3.6,0.9,4.7,1.4c0,0,0,0,0,0c2.9,1.5,2.8,3.3,2.8,4.3c0,0.1,0,0.1,0,0.2c0,0.3,0.2,0.5,0.5,0.5
					h0c0.3,0,0.5-0.2,0.5-0.5c0-0.1,0-0.1,0-0.2c0-0.4,0-1-0.2-1.7c0.5,0.3,1,0.6,1.6,0.8c0.1,0,0.2,0,0.3,0C12,5.8,13.4,5.6,15,5.6
					c1.6,0,3,0.1,3.8,0.3c0.1,0,0.2,0,0.3,0c0.7-0.2,1.2-0.5,1.6-0.8c-0.2,0.7-0.2,1.3-0.2,1.7c0,0.1,0,0.1,0,0.2
					c0,0.3,0.2,0.5,0.5,0.5h0c0.3,0,0.5-0.2,0.5-0.5c0-0.1,0-0.1,0-0.2c0-1-0.1-2.8,2.8-4.3c0,0,0,0,0,0c1.1-0.5,2.5-1,4.7-1.4
					c-0.2,0.7-0.5,1.8-0.9,3c-0.8,2.2-1.8,3.5-2.7,3.9c-0.5,0.2-1.1,0.1-1.7-0.4c-0.6-0.5-1-0.6-1.5-0.5c-0.2,0.1-0.5,0.3-0.7,0.7
					c0,0,0,0.1,0,0.1c0,1.1,0.6,2.3,1.2,3.8c0.4,0.8,0.8,1.7,1.1,2.6c0.2-0.3,0.5-0.5,0.7-0.7c-0.3-0.8-0.7-1.6-1-2.3
					C23,10,22.5,8.9,22.4,8c0,0,0,0,0-0.1c0,0,0.2,0,0.6,0.3c1.1,0.9,2.2,0.9,3.3,0.1c1-0.8,1.9-2.3,2.8-4.6
					c0.3-0.9,0.5-1.7,0.7-2.2C30,0.5,30,0.4,30,0.3C29.9,0.1,29.7,0,29.5,0c-2.6,0.4-4.4,1-5.6,1.6c0,0,0,0,0,0c0,0-0.1,0-0.1,0
					c-1.2,0.6-2,1.3-2.6,1.9c-0.7,0.6-1.3,1.1-2.2,1.5C18,4.8,16.6,4.7,15,4.7c-1.6,0-3,0.1-3.9,0.3c-0.9-0.3-1.5-0.9-2.2-1.5
					C8.2,3,7.5,2.3,6.3,1.7c0,0-0.1,0-0.1,0c0,0,0,0,0,0C4.9,1,3.2,0.4,0.5,0C0.3,0,0.1,0.1,0,0.3C0,0.4,0,0.5,0.2,1.5
					C0.4,2.1,0.6,2.9,0.9,3.8z"/> </g> </g> <g id="icon-carne-de-cerdo-XMLID_9_"> <ellipse id="icon-carne-de-cerdo-XMLID_10_" fill="#FFFFFF" cx="20.9" cy="23.4" rx="0.1" ry="0"/> </g> <g id="icon-carne-de-cerdo-XMLID_5_"> <path id="icon-carne-de-cerdo-XMLID_6_" fill="#FFFFFF" d="M11.8,22.4c-0.5,0-0.9-0.1-1.2-0.4c-0.4-0.3-0.6-0.9-0.6-1.7c0-2.7,2.2-5,5-5
				c2.7,0,5,2.2,5,5c0,0.8-0.2,1.3-0.6,1.7c-0.6,0.5-1.5,0.4-2.5,0.2c-0.6-0.1-1.2-0.2-1.8-0.2c-0.6,0-1.3,0.1-1.8,0.2
				C12.7,22.4,12.2,22.4,11.8,22.4z M15,21c0.7,0,1.4,0.1,2,0.2c0.7,0.1,1.5,0.2,1.7,0c0.1-0.1,0.2-0.4,0.2-0.9
				c0-2.2-1.8-3.9-3.9-3.9s-3.9,1.8-3.9,3.9c0,0.4,0.1,0.7,0.2,0.9c0.2,0.2,1,0.1,1.7,0C13.6,21.2,14.3,21,15,21z"/> </g> </g> <path id="icon-carne-de-cerdo-XMLID_3_" fill="none" stroke="#FFFFFF" stroke-miterlimit="10" d="M24.1,13.5c0,0,4.1,9-3,10.7c0,0-3.2,2-6.1,2"/> <path id="icon-carne-de-cerdo-XMLID_2_" fill="none" stroke="#FFFFFF" stroke-miterlimit="10" d="M6,13.5c0,0-4.2,9,2.9,10.7c0,0,3.3,2,6.1,2"/> </g> </symbol><symbol viewBox="0 0 30 26.7" id="shape-icon-chancho"><title>icon-chancho</title>  <g id="icon-chancho-XMLID_1_"> <g id="icon-chancho-XMLID_4_"> <g id="icon-chancho-XMLID_11_"> <g id="icon-chancho-XMLID_20_"> <path id="icon-chancho-XMLID_21_" fill="#FFFFFF" d="M20.5,11.8c0,0.5,0.4,0.8,0.9,0.8c0,0,0,0,0,0c0.2,0,0.4-0.1,0.6-0.3
					c0.2-0.2,0.2-0.4,0.2-0.6c0-0.2-0.1-0.4-0.3-0.6C21.7,11,21.5,11,21.3,11C20.8,11,20.5,11.3,20.5,11.8z"/> </g> <g id="icon-chancho-XMLID_18_"> <path id="icon-chancho-XMLID_19_" fill="#FFFFFF" d="M7.9,11.8c0,0.5,0.4,0.8,0.9,0.8c0,0,0,0,0,0c0.2,0,0.4-0.1,0.6-0.3
					c0.2-0.2,0.2-0.4,0.2-0.6c0-0.2-0.1-0.4-0.3-0.6C9.2,11,9,11,8.8,11C8.3,11,7.9,11.3,7.9,11.8z"/> </g> <g id="icon-chancho-XMLID_16_"> <path id="icon-chancho-XMLID_17_" fill="#FFFFFF" d="M13.1,18.3c-0.3,0-0.5,0.1-0.7,0.3s-0.3,0.4-0.3,0.7c0,0.3,0.1,0.5,0.3,0.7
					c0.2,0.2,0.4,0.3,0.7,0.3c0,0,0,0,0,0c0.3,0,0.5-0.1,0.7-0.3s0.3-0.4,0.3-0.7c0-0.3-0.1-0.5-0.3-0.7
					C13.6,18.4,13.3,18.3,13.1,18.3z"/> </g> <g id="icon-chancho-XMLID_14_"> <path id="icon-chancho-XMLID_15_" fill="#FFFFFF" d="M16.8,18.3c-0.3,0-0.5,0.1-0.7,0.3c-0.2,0.2-0.3,0.4-0.3,0.7c0,0.5,0.4,0.9,0.9,0.9
					c0,0,0,0,0,0c0.3,0,0.5-0.1,0.7-0.3c0.2-0.2,0.3-0.4,0.3-0.7c0-0.3-0.1-0.5-0.3-0.7C17.3,18.4,17.1,18.3,16.8,18.3z"/> </g> <g id="icon-chancho-XMLID_12_"> <path id="icon-chancho-XMLID_13_" fill="#FFFFFF" d="M0.9,3.8c0.8,2.3,1.7,3.9,2.8,4.6C4.7,9.2,5.9,9.2,7,8.3C7.3,8,7.5,8,7.5,7.9
					c0,0,0,0,0,0.1c0,0.9-0.6,2-1.2,3.3C6,12.1,5.6,13,5.2,14c0.2,0.3,0.5,0.6,0.6,1c0.4-1.2,0.9-2.4,1.4-3.4
					C7.9,10.3,8.5,9,8.5,7.9c0,0,0-0.1,0-0.1C8.3,7.3,8.1,7.1,7.8,7C7.4,6.9,7,7.1,6.4,7.5C5.8,8,5.2,8.1,4.7,7.9
					C2.8,7.2,1.5,2.8,1.1,1c2.1,0.4,3.6,0.9,4.7,1.4c0,0,0,0,0,0c2.9,1.5,2.8,3.3,2.8,4.3c0,0.1,0,0.1,0,0.2c0,0.3,0.2,0.5,0.5,0.5
					h0c0.3,0,0.5-0.2,0.5-0.5c0-0.1,0-0.1,0-0.2c0-0.4,0-1-0.2-1.7c0.5,0.3,1,0.6,1.6,0.8c0.1,0,0.2,0,0.3,0C12,5.8,13.4,5.6,15,5.6
					c1.6,0,3,0.1,3.8,0.3c0.1,0,0.2,0,0.3,0c0.7-0.2,1.2-0.5,1.6-0.8c-0.2,0.7-0.2,1.3-0.2,1.7c0,0.1,0,0.1,0,0.2
					c0,0.3,0.2,0.5,0.5,0.5h0c0.3,0,0.5-0.2,0.5-0.5c0-0.1,0-0.1,0-0.2c0-1-0.1-2.8,2.8-4.3c0,0,0,0,0,0c1.1-0.5,2.5-1,4.7-1.4
					c-0.2,0.7-0.5,1.8-0.9,3c-0.8,2.2-1.8,3.5-2.7,3.9c-0.5,0.2-1.1,0.1-1.7-0.4c-0.6-0.5-1-0.6-1.5-0.5c-0.2,0.1-0.5,0.3-0.7,0.7
					c0,0,0,0.1,0,0.1c0,1.1,0.6,2.3,1.2,3.8c0.4,0.8,0.8,1.7,1.1,2.6c0.2-0.3,0.5-0.5,0.7-0.7c-0.3-0.8-0.7-1.6-1-2.3
					C23,10,22.5,8.9,22.4,8c0,0,0,0,0-0.1c0,0,0.2,0,0.6,0.3c1.1,0.9,2.2,0.9,3.3,0.1c1-0.8,1.9-2.3,2.8-4.6
					c0.3-0.9,0.5-1.7,0.7-2.2C30,0.5,30,0.4,30,0.3C29.9,0.1,29.7,0,29.5,0c-2.6,0.4-4.4,1-5.6,1.6c0,0,0,0,0,0c0,0-0.1,0-0.1,0
					c-1.2,0.6-2,1.3-2.6,1.9c-0.7,0.6-1.3,1.1-2.2,1.5C18,4.8,16.6,4.7,15,4.7c-1.6,0-3,0.1-3.9,0.3c-0.9-0.3-1.5-0.9-2.2-1.5
					C8.2,3,7.5,2.3,6.3,1.7c0,0-0.1,0-0.1,0c0,0,0,0,0,0C4.9,1,3.2,0.4,0.5,0C0.3,0,0.1,0.1,0,0.3C0,0.4,0,0.5,0.2,1.5
					C0.4,2.1,0.6,2.9,0.9,3.8z"/> </g> </g> <g id="icon-chancho-XMLID_9_"> <ellipse id="icon-chancho-XMLID_10_" fill="#FFFFFF" cx="20.9" cy="23.4" rx="0.1" ry="0"/> </g> <g id="icon-chancho-XMLID_5_"> <path id="icon-chancho-XMLID_6_" fill="#FFFFFF" d="M11.8,22.4c-0.5,0-0.9-0.1-1.2-0.4c-0.4-0.3-0.6-0.9-0.6-1.7c0-2.7,2.2-5,5-5
				c2.7,0,5,2.2,5,5c0,0.8-0.2,1.3-0.6,1.7c-0.6,0.5-1.5,0.4-2.5,0.2c-0.6-0.1-1.2-0.2-1.8-0.2c-0.6,0-1.3,0.1-1.8,0.2
				C12.7,22.4,12.2,22.4,11.8,22.4z M15,21c0.7,0,1.4,0.1,2,0.2c0.7,0.1,1.5,0.2,1.7,0c0.1-0.1,0.2-0.4,0.2-0.9
				c0-2.2-1.8-3.9-3.9-3.9s-3.9,1.8-3.9,3.9c0,0.4,0.1,0.7,0.2,0.9c0.2,0.2,1,0.1,1.7,0C13.6,21.2,14.3,21,15,21z"/> </g> </g> <path id="icon-chancho-XMLID_3_" fill="none" stroke="#FFFFFF" stroke-miterlimit="10" d="M24.1,13.5c0,0,4.1,9-3,10.7c0,0-3.2,2-6.1,2"/> <path id="icon-chancho-XMLID_2_" fill="none" stroke="#FFFFFF" stroke-miterlimit="10" d="M6,13.5c0,0-4.2,9,2.9,10.7c0,0,3.3,2,6.1,2"/> </g> </symbol><symbol viewBox="0 0 24 24.5" id="shape-icon-close"><title>icon-close</title>  <g> <g> <path fill="#FFFFFF" d="M12.7,12.3L23.8,1.2c0.3-0.3,0.3-0.7,0-1c-0.3-0.3-0.7-0.3-1,0L11.2,11.8c-0.3,0.3-0.3,0.7,0,1l11.6,11.6
			c0.1,0.1,0.3,0.2,0.5,0.2c0.2,0,0.4-0.1,0.5-0.2c0.3-0.3,0.3-0.7,0-1L12.7,12.3z"/> </g> <g> <path fill="#FFFFFF" d="M11.3,12.3L0.2,23.3c-0.3,0.3-0.3,0.7,0,1s0.7,0.3,1,0l11.6-11.6c0.3-0.3,0.3-0.7,0-1L1.2,0.2
			C1.1,0.1,0.9,0,0.7,0C0.5,0,0.3,0.1,0.2,0.2c-0.3,0.3-0.3,0.7,0,1L11.3,12.3z"/> </g> </g> </symbol><symbol viewBox="0 0 37.6 19" id="shape-icon-comites"><title>icon-comites</title>  <g> <path fill="none" stroke="#FFFFFF" stroke-width="1.59" stroke-linecap="round" stroke-linejoin="round" stroke-miterlimit="10" d="
		M34.8,12.2c0-2.6-2.1-4.7-4.7-4.7s-4.7,2.1-4.7,4.7"/> <circle fill="none" stroke="#FFFFFF" stroke-width="1.59" stroke-miterlimit="10" cx="30.1" cy="2.6" r="1.8"/> <path fill="none" stroke="#FFFFFF" stroke-width="1.59" stroke-linecap="round" stroke-linejoin="round" stroke-miterlimit="10" d="
		M23.2,9.6c-0.8-1.3-2.3-2.1-3.9-2.1c-1.6,0-3.1,0.8-3.9,2.1"/> <circle fill="none" stroke="#FFFFFF" stroke-width="1.59" stroke-miterlimit="10" cx="19.3" cy="2.6" r="1.8"/> <path fill="none" stroke="#FFFFFF" stroke-width="1.59" stroke-linecap="round" stroke-linejoin="round" stroke-miterlimit="10" d="
		M13.2,12.2c0-2.6-2.1-4.7-4.7-4.7s-4.7,2.1-4.7,4.7"/> <circle fill="none" stroke="#FFFFFF" stroke-width="1.59" stroke-miterlimit="10" cx="8.5" cy="2.6" r="1.8"/> <path fill="none" stroke="#FFFFFF" stroke-width="1.59" stroke-miterlimit="10" d="M35.1,18.2H2.5c-0.9,0-1.7-0.8-1.7-1.7v-0.6
		c0-0.9,0.8-1.7,1.7-1.7h32.6c0.9,0,1.7,0.8,1.7,1.7v0.6C36.8,17.4,36,18.2,35.1,18.2z"/> </g> </symbol><symbol viewBox="0 0 25 16.4" id="shape-icon-contact"><title>icon-contact</title>  <g id="icon-contact-XMLID_1_"> <g id="icon-contact-XMLID_2_"> <path id="icon-contact-XMLID_3_" fill="none" stroke-miterlimit="10" d="M0.5,0.5v15.4h24V0.5H0.5z M22.5,1.5l-10,8.4l-10-8.4
			H22.5z M1.5,14.8V2.1l11,9.1l11-9.1v12.7L1.5,14.8L1.5,14.8z"/> </g> </g> </symbol><symbol viewBox="0 0 16 14.8" id="shape-icon-download"><title>icon-download</title>  <g id="icon-download-XMLID_1_"> <g id="icon-download-XMLID_2_"> <path id="icon-download-XMLID_4_" d="M15.5,7.2c-0.3,0-0.5,0.2-0.5,0.5v4.2c0,1.1-0.9,2.1-2.1,2.1H3c-1.1,0-2.1-0.9-2.1-2.1V7.6
			c0-0.3-0.2-0.5-0.5-0.5S0,7.4,0,7.6v4.2c0,1.6,1.3,3,3,3H13c1.6,0,3-1.3,3-3V7.7C16,7.4,15.8,7.2,15.5,7.2z"/> <path id="icon-download-XMLID_3_" d="M7.7,11.2c0.1,0.1,0.2,0.1,0.3,0.1s0.2,0,0.3-0.1l2.9-2.9c0.2-0.2,0.2-0.5,0-0.6
			c-0.2-0.2-0.5-0.2-0.6,0L8.5,9.8V0.5C8.5,0.2,8.3,0,8,0C7.7,0,7.5,0.2,7.5,0.5v9.3L5.4,7.6c-0.2-0.2-0.5-0.2-0.6,0
			c-0.2,0.2-0.2,0.5,0,0.6L7.7,11.2z"/> </g> </g> </symbol><symbol viewBox="0 0 10.7 23.1" id="shape-icon-facebook"><title>icon-facebook</title>  <path id="icon-facebook-XMLID_1_" d="M10.3,11.5H7.1v11.5H2.3V11.5H0V7.5h2.3V4.8C2.3,2.9,3.2,0,7.1,0l3.5,0v4H8.1
	c-0.4,0-1,0.2-1,1.1v2.4h3.6L10.3,11.5z"/> </symbol><symbol viewBox="0 0 16 7.6" id="shape-icon-flickr"><title>icon-flickr</title> <circle id="icon-flickr-XMLID_3_" fill="#676D6F" cx="3.8" cy="3.8" r="3.8"/> <circle id="icon-flickr-XMLID_2_" fill="#676D6F" cx="12.2" cy="3.8" r="3.8"/> </symbol><symbol viewBox="0 0 16 16" id="shape-icon-fullscreen"><title>icon-fullscreen</title>  <polyline points="5.7,16 5.7,10.3 0,10.3 0,12.6 3.4,12.6 3.4,16 "/> <polygon points="3.4,3.4 0,3.4 0,5.7 5.7,5.7 5.7,0 3.4,0 "/> <polyline points="12.6,16 12.6,12.6 16,12.6 16,10.3 10.3,10.3 10.3,16 "/> <polygon points="12.6,3.4 12.6,0 10.3,0 10.3,5.7 16,5.7 16,3.4 "/> </symbol><symbol viewBox="0 0 36 34.6" id="shape-icon-gerencia"><title>icon-gerencia</title>  <g id="icon-gerencia-XMLID_1_"> <g id="icon-gerencia-XMLID_2_"> <path id="icon-gerencia-XMLID_17_" fill="#FFFFFF" d="M18,7.9c1.5,0,2.6-1.2,2.6-2.6c0-1.5-1.1-2.6-2.6-2.6c-1.5,0-2.6,1.1-2.6,2.6
			C15.4,6.7,16.5,7.9,18,7.9z M18,4c0.7,0,1.1,0.5,1.1,1.1c0,0.6-0.5,1.1-1.1,1.1c-0.6,0-1.1-0.5-1.1-1.1C16.9,4.6,17.3,4,18,4z"/> <path id="icon-gerencia-XMLID_14_" fill="#FFFFFF" d="M7.4,22.4c-1.5,0-2.6,1.1-2.6,2.6s1.1,2.6,2.6,2.6c1.4,0,2.6-1.1,2.6-2.6
			S8.9,22.4,7.4,22.4z M7.4,26.1c-0.6,0-1.1-0.5-1.1-1.1s0.5-1.1,1.1-1.1c0.6,0,1.1,0.5,1.1,1.1S8.1,26.1,7.4,26.1z"/> <path id="icon-gerencia-XMLID_6_" fill="#FFFFFF" d="M28.6,19.8c-2.4,0-4.6,1.1-5.9,2.9l-4-3.6v-4.2c3.7-0.4,6.7-3.6,6.7-7.4
			C25.4,3.3,22.1,0,18,0s-7.4,3.4-7.4,7.4c0,3.9,3,7.1,6.7,7.4V19l-4,3.6c-1.4-1.8-3.5-2.9-5.9-2.9C3.3,19.8,0,23,0,27.2
			s3.4,7.4,7.4,7.4s7.4-3.3,7.4-7.4c0-1.2-0.3-2.3-0.7-3.3l3.9-3.6l3.9,3.6c-0.5,1-0.7,2.1-0.7,3.3c0,4.1,3.4,7.4,7.4,7.4
			c4.1,0,7.4-3.3,7.4-7.4S32.7,19.8,28.6,19.8L28.6,19.8z M4.1,32.1c0.4-1.2,1.4-2,2.7-2h1.4c1.2,0,2.3,0.8,2.7,2
			c-1,0.6-2.1,1-3.3,1C6.2,33.2,5,32.8,4.1,32.1z M11.9,31.1c-0.7-1.4-2.2-2.3-3.8-2.3H6.7c-1.7,0-3.1,0.9-3.8,2.3
			C2,30,1.5,28.7,1.5,27.2c0-3.3,2.7-6,6-6c3.2,0,6,2.7,6,6C13.4,28.7,12.8,30.1,11.9,31.1L11.9,31.1z M18,13.4
			c-1.2,0-2.4-0.4-3.3-1c0.4-1.2,1.4-2,2.7-2h1.4c1.2,0,2.3,0.8,2.7,2C20.4,13,19.2,13.4,18,13.4z M12,7.4c0-3.3,2.7-6,6-6
			s6,2.7,6,6c0,1.5-0.6,2.9-1.5,3.9C21.8,10,20.3,9,18.7,9h-1.4c-1.7,0-3.1,0.9-3.8,2.3C12.6,10.3,12,8.9,12,7.4z M25.2,32.1
			c0.4-1.2,1.4-2,2.7-2h1.4c1.2,0,2.3,0.8,2.7,2c-1,0.6-2.1,1-3.3,1S26.2,32.8,25.2,32.1z M33.1,31.1c-0.7-1.4-2.2-2.3-3.8-2.3h-1.4
			c-1.7,0-3.1,0.9-3.8,2.3c-0.9-1.1-1.5-2.4-1.5-3.9c0-3.3,2.7-6,6-6s6,2.7,6,6C34.5,28.7,34,30.1,33.1,31.1L33.1,31.1z"/> <path id="icon-gerencia-XMLID_3_" fill="#FFFFFF" d="M28.6,22.4c-1.5,0-2.6,1.1-2.6,2.6s1.1,2.6,2.6,2.6c1.5,0,2.6-1.1,2.6-2.6
			S30,22.4,28.6,22.4z M28.6,26.1c-0.6,0-1.1-0.5-1.1-1.1s0.5-1.1,1.1-1.1c0.7,0,1.1,0.5,1.1,1.1S29.3,26.1,28.6,26.1z"/> </g> </g> </symbol><symbol viewBox="0 0 16 10.2" id="shape-icon-google-plus"><title>icon-google-plus</title> <path d="M5.6,6.2h2.5c-0.4,1.2-1.6,2.1-3,2.1c-1.7,0-3.1-1.4-3.1-3C1.9,3.4,3.3,1.9,5.1,1.9 c0.8,0,1.6,0.3,2.1,0.8c0.1,0.1,0.3,0.1,0.5,0l0.9-0.9c0.1-0.1,0.1-0.4,0-0.5C7.7,0.6,6.5,0,5.2,0C2.4-0.1,0,2.3,0,5.1 c0,2.8,2.3,5.2,5.1,5.2c2.7,0,5-2.1,5.1-4.8c0,0,0-1.2,0-1.2H5.6c-0.2,0-0.3,0.2-0.3,0.3v1.3C5.3,6,5.4,6.2,5.6,6.2z"/> <path d="M14.5,4.3V3.1c0-0.2-0.1-0.3-0.3-0.3h-1c-0.2,0-0.3,0.1-0.3,0.3v1.2h-1.2 c-0.2,0-0.3,0.1-0.3,0.3v1c0,0.2,0.1,0.3,0.3,0.3h1.2v1.2c0,0.2,0.1,0.3,0.3,0.3h1c0.2,0,0.3-0.1,0.3-0.3V6h1.2 C15.9,6,16,5.8,16,5.7v-1c0-0.2-0.1-0.3-0.3-0.3L14.5,4.3L14.5,4.3z"/> </symbol><symbol viewBox="0 0 22.6 22.6" id="shape-icon-instagram"><title>icon-instagram</title>  <path d="M18.2,0H4.4C2,0,0,2,0,4.4v13.9c0,2.4,2,4.4,4.4,4.4h13.9c2.4,0,4.4-2,4.4-4.4V9V4.4C22.6,2,20.6,0,18.2,0z
	 M19.5,2.6H20v3.8l-3.8,0l0-3.8L19.5,2.6z M8.1,9c0.7-1,1.9-1.7,3.2-1.7c1.3,0,2.5,0.7,3.2,1.7c0.5,0.7,0.8,1.5,0.8,2.3
	c0,2.2-1.8,4-4,4c-2.2,0-4-1.8-4-4C7.3,10.4,7.6,9.6,8.1,9z M20.4,18.2c0,1.2-1,2.2-2.2,2.2H4.4c-1.2,0-2.2-1-2.2-2.2V9h3.4
	c-0.3,0.7-0.5,1.5-0.5,2.3c0,3.4,2.8,6.2,6.2,6.2c3.4,0,6.2-2.8,6.2-6.2c0-0.8-0.2-1.6-0.5-2.3h3.4V18.2z"/> </symbol><symbol viewBox="0 0 21.2 21.3" id="shape-icon-linkedin"><title>icon-linkedin</title>  <g> <path d="M19.6,0H1.6C0.7,0,0,0.7,0,1.5v18.3c0,0.8,0.7,1.5,1.6,1.5h18.1c0.9,0,1.6-0.7,1.6-1.5V1.5
		C21.2,0.7,20.5,0,19.6,0z M6.4,17.9H3.2V8.2h3.2V17.9z M4.8,6.9L4.8,6.9C3.7,6.9,3,6.2,3,5.2c0-0.9,0.7-1.7,1.8-1.7
		c1.1,0,1.8,0.7,1.8,1.7C6.6,6.2,5.9,6.9,4.8,6.9z M18,17.9h-3.2v-5.2c0-1.3-0.5-2.2-1.6-2.2c-0.9,0-1.4,0.6-1.6,1.2
		c-0.1,0.2-0.1,0.5-0.1,0.8v5.4H8.2c0,0,0-8.7,0-9.6h3.2v1.4C11.8,8.9,12.6,8,14.3,8c2.1,0,3.7,1.4,3.7,4.3V17.9z"/> <path d="M11.4,9.6L11.4,9.6C11.4,9.6,11.4,9.6,11.4,9.6L11.4,9.6z"/> </g> </symbol><symbol viewBox="0 0 25 25" id="shape-icon-lupa"><title>icon-lupa</title>  <g id="icon-lupa-Header_mobile_copia"> <g id="icon-lupa-XMLID_1_"> <path id="icon-lupa-XMLID_2_" stroke-miterlimit="10" d="M24.2,22.8L18.4,17c1.4-1.7,2.3-4,2.3-6.4
			c0-5.6-4.5-10.1-10.1-10.1C5,0.5,0.5,5,0.5,10.6S5,20.7,10.6,20.7c2.4,0,4.7-0.9,6.4-2.3l5.8,5.8c0.4,0.4,1,0.4,1.4,0
			C24.6,23.8,24.6,23.2,24.2,22.8z M10.6,18.7c-4.5,0-8.1-3.6-8.1-8.1s3.6-8.1,8.1-8.1c4.5,0,8.1,3.6,8.1,8.1S15.1,18.7,10.6,18.7z"/> </g> </g> </symbol><symbol viewBox="0 0 16.8 13.2" id="shape-icon-mail"><title>icon-mail</title>  <g> <g> <path d="M15.3,13.2c0.4,0,0.7-0.1,1-0.4l-4.8-4.8c-0.1,0.1-0.2,0.2-0.3,0.2c-0.4,0.3-0.6,0.5-0.9,0.6c-0.2,0.1-0.5,0.3-0.9,0.5
			c-0.4,0.2-0.7,0.2-1,0.2h0h0c-0.3,0-0.7-0.1-1-0.2C7,9.2,6.7,9.1,6.5,8.9C6.3,8.8,6,8.6,5.6,8.3C5.5,8.2,5.4,8.2,5.3,8.1l-4.8,4.8
			c0.3,0.2,0.6,0.4,1,0.4H15.3z"/> <path d="M0.9,5.1C0.6,4.8,0.3,4.6,0,4.3v7.2l4.2-4.2C3.4,6.7,2.3,6,0.9,5.1z"/> <path d="M15.9,5.1c-1.3,0.9-2.4,1.6-3.3,2.2l4.2,4.2V4.3C16.5,4.6,16.2,4.8,15.9,5.1z"/> <path d="M15.3,0H1.5C1,0,0.6,0.2,0.4,0.5C0.1,0.8,0,1.2,0,1.7C0,2.1,0.2,2.5,0.5,3c0.3,0.5,0.7,0.8,1.1,1.1
			c0.2,0.2,0.9,0.6,1.9,1.3C4.1,5.8,4.6,6.2,5,6.5C5.4,6.7,5.7,6.9,6,7.1c0,0,0.1,0.1,0.1,0.1c0.1,0,0.2,0.1,0.3,0.2
			c0.2,0.1,0.4,0.3,0.5,0.4C7,7.9,7.2,8,7.4,8.1c0.2,0.1,0.4,0.2,0.5,0.3c0.2,0.1,0.3,0.1,0.5,0.1h0h0c0.1,0,0.3,0,0.5-0.1
			c0.2-0.1,0.3-0.1,0.5-0.3C9.6,8,9.8,7.9,9.9,7.8c0.1-0.1,0.3-0.2,0.5-0.4c0.1-0.1,0.2-0.1,0.3-0.2c0.1,0,0.1-0.1,0.1-0.1
			C11,7,11.3,6.8,11.8,6.5c0.8-0.5,1.9-1.3,3.4-2.4c0.5-0.3,0.8-0.7,1.1-1.2c0.3-0.5,0.5-0.9,0.5-1.4c0-0.4-0.1-0.8-0.4-1.1
			C16.1,0.1,15.7,0,15.3,0z"/> </g> </g> </symbol><symbol viewBox="0 0 11.6 11.6" id="shape-icon-more"><title>icon-more</title>  <g> <path d="M11.6,5.2v1.3H6.4v5.1H5.1V6.4H0V5.2h5.1V0h1.3v5.2H11.6z"/> </g> </symbol><symbol viewBox="0 0 14.2 26.6" id="shape-icon-next"><title>icon-next</title>  <g id="icon-next-XMLID_1_"> <path id="icon-next-XMLID_2_" d="M1.6,0.3C1.4,0.1,1.2,0,0.9,0S0.5,0.1,0.3,0.3c-0.4,0.4-0.4,1,0,1.3L12,13.3L0.3,25
		c-0.4,0.4-0.4,1,0,1.3s1,0.4,1.3,0l12.3-12.3c0.4-0.4,0.4-1,0-1.3L1.6,0.3z"/> </g> </symbol><symbol viewBox="0 0 29 30" id="shape-icon-pork-industry-analysis"><title>icon-pork-industry-analysis</title>  <g id="icon-pork-industry-analysis-XMLID_1_"> <g id="icon-pork-industry-analysis-XMLID_2_"> <g id="icon-pork-industry-analysis-XMLID_3_"> <g id="icon-pork-industry-analysis-XMLID_9_"> <path id="icon-pork-industry-analysis-XMLID_10_" fill="#FFFFFF" d="M3.1,16.8c-0.2,0-0.4-0.2-0.4-0.4c0-0.2,0.2-0.4,0.4-0.4l2.1,0l3.6-4.2
					c0.2-0.2,0.4-0.2,0.6,0c0,0,0.1,0.1,0.1,0.1l3.1,3.9l6.6-7.4c0.2-0.2,0.4-0.2,0.6,0l0,0l3.9,3.9l1.4-2.2
					c0.1-0.2,0.4-0.2,0.6-0.1c0.2,0.1,0.3,0.4,0.1,0.6l-1.7,2.6c0,0,0,0.1-0.1,0.1c-0.2,0.2-0.4,0.2-0.6,0l-4-4L13,16.6l0,0
					c0,0,0,0-0.1,0.1c-0.2,0.1-0.5,0.1-0.6-0.1l-3.1-3.9l-3.4,3.9l0,0c-0.1,0.1-0.2,0.2-0.3,0.2L3.1,16.8L3.1,16.8z M19.8,8.2
					L19.8,8.2L19.8,8.2z"/> </g> <path id="icon-pork-industry-analysis-XMLID_8_" fill="#FFFFFF" d="M13.8,2.5c0.2,0,0.5,0.3,0.5,0.5c0,0.2-0.2,0.5-0.5,0.5H1v18h27v-18H15.6
				c-0.2,0-0.5-0.3-0.5-0.5s0.2-0.5,0.5-0.5h12.6h0c0.2,0,0.7,0.4,0.7,0.7v17.1v0c0,0.2-0.5,2.2-0.7,2.2h-28h0C0,22.5,0,20.6,0,20.3
				V3.2v0c0-0.2,0-0.7,0.3-0.7H13.8L13.8,2.5z"/> <path id="icon-pork-industry-analysis-XMLID_7_" fill="#FFFFFF" d="M12,0.4C12,0.2,12.3,0,12.5,0C12.7,0,13,0.2,13,0.4v2.7c0,0.2-0.3,0.4-0.5,0.4
				S12,3.4,12,3.2V0.4z"/> <path id="icon-pork-industry-analysis-XMLID_6_" fill="#FFFFFF" d="M14.5,23.2c0-0.2,0.2-0.4,0.4-0.4c0.2,0,0.4,0.2,0.4,0.4l0,4.5c0,0.2-0.2,0.4-0.4,0.4
				s-0.4-0.2-0.4-0.4L14.5,23.2z"/> <path id="icon-pork-industry-analysis-XMLID_5_" fill="#FFFFFF" d="M8.2,23.1c0.1-0.2,0.3-0.4,0.6-0.3c0.2,0.1,0.4,0.3,0.3,0.6l-1.8,6.3
				c-0.1,0.2-0.3,0.4-0.6,0.3c-0.2-0.1-0.4-0.3-0.3-0.6L8.2,23.1z"/> <path id="icon-pork-industry-analysis-XMLID_4_" fill="#FFFFFF" d="M20.8,23.4c-0.1-0.2,0.1-0.5,0.3-0.6c0.2-0.1,0.5,0.1,0.6,0.3l1.8,6.3
				c0.1,0.2-0.1,0.5-0.3,0.6c-0.2,0.1-0.5-0.1-0.6-0.3L20.8,23.4z"/> </g> </g> </g> </symbol><symbol viewBox="0 0 30 26.7" id="shape-icon-pork"><title>icon-pork</title>  <g id="icon-pork-XMLID_1_"> <g id="icon-pork-XMLID_4_"> <g id="icon-pork-XMLID_11_"> <g id="icon-pork-XMLID_20_"> <path id="icon-pork-XMLID_21_" fill="#FFFFFF" d="M20.5,11.8c0,0.5,0.4,0.8,0.9,0.8c0,0,0,0,0,0c0.2,0,0.4-0.1,0.6-0.3
					c0.2-0.2,0.2-0.4,0.2-0.6c0-0.2-0.1-0.4-0.3-0.6C21.7,11,21.5,11,21.3,11C20.8,11,20.5,11.3,20.5,11.8z"/> </g> <g id="icon-pork-XMLID_18_"> <path id="icon-pork-XMLID_19_" fill="#FFFFFF" d="M7.9,11.8c0,0.5,0.4,0.8,0.9,0.8c0,0,0,0,0,0c0.2,0,0.4-0.1,0.6-0.3
					c0.2-0.2,0.2-0.4,0.2-0.6c0-0.2-0.1-0.4-0.3-0.6C9.2,11,9,11,8.8,11C8.3,11,7.9,11.3,7.9,11.8z"/> </g> <g id="icon-pork-XMLID_16_"> <path id="icon-pork-XMLID_17_" fill="#FFFFFF" d="M13.1,18.3c-0.3,0-0.5,0.1-0.7,0.3s-0.3,0.4-0.3,0.7c0,0.3,0.1,0.5,0.3,0.7
					c0.2,0.2,0.4,0.3,0.7,0.3c0,0,0,0,0,0c0.3,0,0.5-0.1,0.7-0.3s0.3-0.4,0.3-0.7c0-0.3-0.1-0.5-0.3-0.7
					C13.6,18.4,13.3,18.3,13.1,18.3z"/> </g> <g id="icon-pork-XMLID_14_"> <path id="icon-pork-XMLID_15_" fill="#FFFFFF" d="M16.8,18.3c-0.3,0-0.5,0.1-0.7,0.3c-0.2,0.2-0.3,0.4-0.3,0.7c0,0.5,0.4,0.9,0.9,0.9
					c0,0,0,0,0,0c0.3,0,0.5-0.1,0.7-0.3c0.2-0.2,0.3-0.4,0.3-0.7c0-0.3-0.1-0.5-0.3-0.7C17.3,18.4,17.1,18.3,16.8,18.3z"/> </g> <g id="icon-pork-XMLID_12_"> <path id="icon-pork-XMLID_13_" fill="#FFFFFF" d="M0.9,3.8c0.8,2.3,1.7,3.9,2.8,4.6C4.7,9.2,5.9,9.2,7,8.3C7.3,8,7.5,8,7.5,7.9
					c0,0,0,0,0,0.1c0,0.9-0.6,2-1.2,3.3C6,12.1,5.6,13,5.2,14c0.2,0.3,0.5,0.6,0.6,1c0.4-1.2,0.9-2.4,1.4-3.4
					C7.9,10.3,8.5,9,8.5,7.9c0,0,0-0.1,0-0.1C8.3,7.3,8.1,7.1,7.8,7C7.4,6.9,7,7.1,6.4,7.5C5.8,8,5.2,8.1,4.7,7.9
					C2.8,7.2,1.5,2.8,1.1,1c2.1,0.4,3.6,0.9,4.7,1.4c0,0,0,0,0,0c2.9,1.5,2.8,3.3,2.8,4.3c0,0.1,0,0.1,0,0.2c0,0.3,0.2,0.5,0.5,0.5
					h0c0.3,0,0.5-0.2,0.5-0.5c0-0.1,0-0.1,0-0.2c0-0.4,0-1-0.2-1.7c0.5,0.3,1,0.6,1.6,0.8c0.1,0,0.2,0,0.3,0C12,5.8,13.4,5.6,15,5.6
					c1.6,0,3,0.1,3.8,0.3c0.1,0,0.2,0,0.3,0c0.7-0.2,1.2-0.5,1.6-0.8c-0.2,0.7-0.2,1.3-0.2,1.7c0,0.1,0,0.1,0,0.2
					c0,0.3,0.2,0.5,0.5,0.5h0c0.3,0,0.5-0.2,0.5-0.5c0-0.1,0-0.1,0-0.2c0-1-0.1-2.8,2.8-4.3c0,0,0,0,0,0c1.1-0.5,2.5-1,4.7-1.4
					c-0.2,0.7-0.5,1.8-0.9,3c-0.8,2.2-1.8,3.5-2.7,3.9c-0.5,0.2-1.1,0.1-1.7-0.4c-0.6-0.5-1-0.6-1.5-0.5c-0.2,0.1-0.5,0.3-0.7,0.7
					c0,0,0,0.1,0,0.1c0,1.1,0.6,2.3,1.2,3.8c0.4,0.8,0.8,1.7,1.1,2.6c0.2-0.3,0.5-0.5,0.7-0.7c-0.3-0.8-0.7-1.6-1-2.3
					C23,10,22.5,8.9,22.4,8c0,0,0,0,0-0.1c0,0,0.2,0,0.6,0.3c1.1,0.9,2.2,0.9,3.3,0.1c1-0.8,1.9-2.3,2.8-4.6
					c0.3-0.9,0.5-1.7,0.7-2.2C30,0.5,30,0.4,30,0.3C29.9,0.1,29.7,0,29.5,0c-2.6,0.4-4.4,1-5.6,1.6c0,0,0,0,0,0c0,0-0.1,0-0.1,0
					c-1.2,0.6-2,1.3-2.6,1.9c-0.7,0.6-1.3,1.1-2.2,1.5C18,4.8,16.6,4.7,15,4.7c-1.6,0-3,0.1-3.9,0.3c-0.9-0.3-1.5-0.9-2.2-1.5
					C8.2,3,7.5,2.3,6.3,1.7c0,0-0.1,0-0.1,0c0,0,0,0,0,0C4.9,1,3.2,0.4,0.5,0C0.3,0,0.1,0.1,0,0.3C0,0.4,0,0.5,0.2,1.5
					C0.4,2.1,0.6,2.9,0.9,3.8z"/> </g> </g> <g id="icon-pork-XMLID_9_"> <ellipse id="icon-pork-XMLID_10_" fill="#FFFFFF" cx="20.9" cy="23.4" rx="0.1" ry="0"/> </g> <g id="icon-pork-XMLID_5_"> <path id="icon-pork-XMLID_6_" fill="#FFFFFF" d="M11.8,22.4c-0.5,0-0.9-0.1-1.2-0.4c-0.4-0.3-0.6-0.9-0.6-1.7c0-2.7,2.2-5,5-5
				c2.7,0,5,2.2,5,5c0,0.8-0.2,1.3-0.6,1.7c-0.6,0.5-1.5,0.4-2.5,0.2c-0.6-0.1-1.2-0.2-1.8-0.2c-0.6,0-1.3,0.1-1.8,0.2
				C12.7,22.4,12.2,22.4,11.8,22.4z M15,21c0.7,0,1.4,0.1,2,0.2c0.7,0.1,1.5,0.2,1.7,0c0.1-0.1,0.2-0.4,0.2-0.9
				c0-2.2-1.8-3.9-3.9-3.9s-3.9,1.8-3.9,3.9c0,0.4,0.1,0.7,0.2,0.9c0.2,0.2,1,0.1,1.7,0C13.6,21.2,14.3,21,15,21z"/> </g> </g> <path id="icon-pork-XMLID_3_" fill="none" stroke="#FFFFFF" stroke-miterlimit="10" d="M24.1,13.5c0,0,4.1,9-3,10.7c0,0-3.2,2-6.1,2"/> <path id="icon-pork-XMLID_2_" fill="none" stroke="#FFFFFF" stroke-miterlimit="10" d="M6,13.5c0,0-4.2,9,2.9,10.7c0,0,3.3,2,6.1,2"/> </g> </symbol><symbol viewBox="0 0 14.2 26.6" id="shape-icon-prev"><title>icon-prev</title>  <g id="icon-prev-XMLID_1_"> <path id="icon-prev-XMLID_2_" d="M12.6,26.3c0.2,0.2,0.4,0.3,0.7,0.3c0.3,0,0.5-0.1,0.7-0.3c0.4-0.4,0.4-1,0-1.3L2.3,13.3
		L13.9,1.6c0.4-0.4,0.4-1,0-1.3c-0.4-0.4-1-0.4-1.3,0L0.3,12.6c-0.4,0.4-0.4,1,0,1.3L12.6,26.3z"/> </g> </symbol><symbol viewBox="0 0 24 25.5" id="shape-icon-share"><title>icon-share</title> <path fill="#676D6F" d="M19.4,16.4c-1.5,0-2.8,0.7-3.6,1.8l-7-3.9c0.2-0.5,0.3-1,0.3-1.5c0-0.5-0.1-1-0.3-1.5l7-3.9
		c0.8,1.1,2.1,1.8,3.6,1.8c2.5,0,4.6-2,4.6-4.6S21.9,0,19.4,0s-4.6,2-4.6,4.6c0,0.5,0.1,1,0.3,1.5l-7,3.9C7.3,8.9,6,8.2,4.6,8.2
		C2,8.2,0,10.2,0,12.7s2,4.6,4.6,4.6c1.5,0,2.8-0.7,3.6-1.8l7,3.9c-0.2,0.5-0.3,1-0.3,1.5c0,2.5,2,4.6,4.6,4.6s4.6-2,4.6-4.6
		S22,16.4,19.4,16.4z M19.4,1.4c1.7,0,3.1,1.4,3.1,3.1s-1.4,3.1-3.1,3.1s-3.1-1.4-3.1-3.1S17.7,1.4,19.4,1.4z M4.6,15.8
		c-1.7,0-3.1-1.4-3.1-3.1s1.4-3.1,3.1-3.1s3.1,1.4,3.1,3.1S6.3,15.8,4.6,15.8z M19.4,24c-1.7,0-3.1-1.4-3.1-3.1s1.4-3.1,3.1-3.1
		s3.1,1.4,3.1,3.1S21.2,24,19.4,24z"/> </symbol><symbol viewBox="0 0 38.3 15.7" id="shape-icon-somos"><title>icon-somos</title>  <g> <g id="icon-somos-XMLID_2_"> <g id="icon-somos-XMLID_3_"> <path fill="#FFFFFF" d="M11.3,1c2.4,0,4.6,0.5,6.5,1.4c0.8,0.4,1.1,0.8,1.6,1.2c-1.4,1.4-1.9,3-1.9,4.8c0,1.5,0.5,2.8,1.5,4
				c-0.7,0.5-1.4,0.9-2.2,1.2c-0.9,0.4-1.9,0.7-2.9,0.9c-0.7,0.1-1.2,0.1-1.6,0.1c-0.3,0-0.7,0-1.3,0c-2.1,0-3.9-0.3-5.5-0.8
				c-1.6-0.6-2.9-1.4-3.7-2.7c-0.3-0.5-0.5-1.1-0.6-1.6C1.1,9,1,8.4,1,7.9c0-0.7,0.2-1.5,0.5-2.2C1.8,5,2.4,4.1,3.4,3.3
				s2.1-1.5,3.3-1.7c1.2-0.2,2-0.4,2.4-0.4C9.5,1.1,9.9,1,10.2,1h0.4H11.3 M10.9,13.7c0.4,0,1.1-0.1,2.1-0.2c1-0.1,1.9-0.8,2.7-1.9
				c0.8-1.1,1.2-2.3,1.2-3.7C17,7.6,17,7,16.8,6.3c-0.1-0.7-0.5-1.5-1.1-2.3c-0.6-0.8-1.6-1.3-3-1.6c-0.3,0-0.6-0.1-0.8-0.1
				c-0.3,0-0.5,0-0.7,0c-0.1,0-0.2,0-0.3,0C9.2,2.2,8,2.7,7,3.6c-0.9,1-1.4,1.9-1.6,2.7C5.3,7.1,5.3,7.7,5.3,8.1
				c0,1.4,0.4,2.6,1.2,3.7c0.8,1.1,1.7,1.6,2.7,1.7C10.2,13.6,10.8,13.7,10.9,13.7 M11.3,0h-0.6h-0.4C9.8,0,9.4,0.1,9,0.1
				c-0.4,0-1.2,0.2-2.5,0.5C5.1,0.9,3.8,1.5,2.7,2.5c-1.1,1-1.8,1.9-2.2,2.8C0.2,6.1,0,7,0,7.9c0,0.6,0.1,1.3,0.3,1.9
				c0.2,0.6,0.4,1.3,0.7,1.8l0,0.1l0,0.1c1,1.4,2.4,2.4,4.2,3c1.7,0.6,3.7,0.9,5.9,0.9c0.6,0,1,0,1.4,0c0.3,0,0.8-0.1,1.6-0.2l0,0
				l0,0c1.1-0.2,2.1-0.5,3.1-0.9c0.9-0.4,1.7-0.8,2.4-1.4l0.8-0.6l-0.7-0.8c-0.9-1-1.3-2.2-1.3-3.4c0-1.7,0.5-3.1,1.6-4.1l0.8-0.8
				l-0.9-0.7c-0.1-0.1-0.2-0.2-0.3-0.3c-0.4-0.3-0.8-0.7-1.5-1C16.2,0.5,13.8,0,11.3,0L11.3,0z M10.9,12.7c-0.1,0-0.3,0-1.6-0.1
				c-0.7-0.1-1.4-0.5-2-1.3c-0.7-0.9-1-1.9-1-3.1c0-0.2,0-0.7,0.2-1.7C6.6,5.9,7,5.1,7.8,4.3c0.7-0.8,1.7-1.1,3.1-1.1h0.3
				c0.2,0,0.4,0,0.6,0c0.2,0,0.5,0.1,0.7,0.1c1.1,0.2,1.9,0.7,2.4,1.3c0.5,0.7,0.8,1.3,0.9,1.8C16,7.3,16,7.7,16,7.9
				c0,1.1-0.3,2.1-1,3.1c-0.7,0.9-1.4,1.4-2.1,1.5C11.7,12.7,11.2,12.7,10.9,12.7L10.9,12.7z"/> </g> </g> <g id="icon-somos-XMLID_1_"> <path fill="#FFFFFF" d="M31.2,1c0.5,0,0.9,0,1.4,0.1c0.7,0.1,1.5,0.2,2.2,0.3c0.7,0.1,1.5,0.3,2.2,0.5l-0.6,2H36
			c-0.6-0.6-1.2-1-2-1.3s-1.6-0.4-2.5-0.4c-1,0-1.9,0.2-2.8,0.5C27.9,3,27.2,3.4,26.6,4c-0.5,0.6-0.8,1.2-1.1,1.9
			c-0.2,0.7-0.4,1.4-0.4,2c0,0.8,0.2,1.5,0.5,2.3c0.4,0.7,0.9,1.3,1.5,1.8c0.7,0.5,1.4,0.8,2.1,1s1.5,0.3,2.4,0.3
			c0.8,0,1.5-0.1,2.2-0.3c0.7-0.2,1.4-0.4,1.9-0.8l0.5-0.3c0,0,0.1,0,0.1,0c0.1,0,0.2,0,0.3,0.1l-0.6,1.6c-0.8,0.3-1.7,0.5-2.6,0.6
			c-0.9,0.1-1.8,0.2-2.8,0.2c-0.5,0-1,0-1.5-0.1l-2.6-0.4c-1.3-0.3-2.4-0.8-3.3-1.4c-0.9-0.6-1.6-1.4-1.9-2.2
			c-0.4-0.9-0.6-1.7-0.6-2.6c0-1,0.2-1.9,0.7-2.7c0.5-0.9,1.2-1.6,2.2-2.2c1-0.6,2.2-1.1,3.5-1.4C28.5,1.2,29.8,1,31.2,1 M31.2,0
			c-1.4,0-2.9,0.2-4.2,0.5c-1.4,0.3-2.6,0.8-3.8,1.5l0,0l0,0c-1.1,0.7-1.9,1.6-2.5,2.6c-0.6,1-0.9,2.1-0.9,3.2c0,1,0.2,2,0.7,3
			c0.5,1,1.2,1.9,2.3,2.6c1,0.7,2.2,1.2,3.7,1.6l0,0l0,0l2.6,0.4l0,0l0,0c0.6,0,1.1,0.1,1.6,0.1c1,0,2-0.1,3-0.2
			c1-0.1,1.9-0.4,2.8-0.7l0.4-0.1l0.2-0.4l0.6-1.6l0.4-1l-1.1-0.3c-0.2-0.1-0.4-0.1-0.6-0.1c-0.1,0-0.2,0-0.4,0l-0.1,0L36,11.2
			l-0.5,0.3l0,0l0,0c-0.5,0.3-1,0.5-1.6,0.7c-0.6,0.2-1.3,0.2-2,0.2c-0.8,0-1.5-0.1-2.1-0.3c-0.6-0.2-1.2-0.5-1.8-0.9
			c-0.5-0.4-0.9-0.9-1.2-1.5c-0.3-0.6-0.4-1.2-0.4-1.8c0-0.6,0.1-1.1,0.3-1.7c0.2-0.6,0.5-1.1,0.9-1.6c0.5-0.5,1-0.8,1.7-1.1
			c0.7-0.3,1.6-0.4,2.4-0.4c0.8,0,1.5,0.1,2.2,0.4c0.6,0.2,1.2,0.6,1.6,1l0.3,0.3H36h0.3h0.7l0.2-0.7l0.6-2l0.3-1l-1-0.3
			c-0.7-0.2-1.5-0.4-2.2-0.6c-0.8-0.2-1.6-0.3-2.4-0.3C32.2,0,31.7,0,31.2,0L31.2,0z"/> </g> </g> </symbol><symbol viewBox="0 0 22.3 18.1" id="shape-icon-twitter"><title>icon-twitter</title>  <path id="icon-twitter-XMLID_1_" d="M20,4.5c0,0.2,0,0.4,0,0.6c0,6-4.6,13-13,13c-2.6,0-5-0.8-7-2.1c0.4,0,0.7,0.1,1.1,0.1
	c2.1,0,4.1-0.7,5.7-2c-2,0-3.7-1.4-4.3-3.2c0.3,0.1,0.6,0.1,0.9,0.1c0.4,0,0.8-0.1,1.2-0.2c-2.1-0.4-3.7-2.3-3.7-4.5c0,0,0,0,0-0.1
	C1.5,6.7,2.2,6.9,3,6.9c-1.2-0.8-2-2.2-2-3.8c0-0.8,0.2-1.6,0.6-2.3C3.8,3.6,7.2,5.4,11,5.6c-0.1-0.3-0.1-0.7-0.1-1
	c0-2.5,2-4.6,4.6-4.6c1.3,0,2.5,0.6,3.3,1.4c1-0.2,2-0.6,2.9-1.1c-0.3,1.1-1.1,2-2,2.5c0.9-0.1,1.8-0.4,2.6-0.7
	C21.7,3.1,20.9,3.9,20,4.5L20,4.5z"/> </symbol><symbol viewBox="0 0 16 13.5" id="shape-icon-vimeo"><title>icon-vimeo</title> <path d="M15.3,0.7C15,0.2,14.4,0,13.7,0c-2-0.1-3.5,1-4.3,3.2c0,0.1,0,0.2,0.1,0.3
	c0.1,0.1,0.2,0.1,0.3,0.1c0.2-0.1,0.5-0.1,0.7-0.1c0.3,0,0.7,0.1,0.9,0.3c0.2,0.2,0.2,0.5,0.1,0.9c-0.1,0.3-0.6,1.2-1.2,2.1
	C9.5,8,9.1,8.5,9,8.5c-0.4,0-1.8-6.1-1.8-6.2C6.8,0.9,6.6,0.2,5.4,0.2c-1,0-3.2,1.8-4.9,3.3C0.3,3.6,0.2,3.7,0.1,3.8
	C0,3.9,0,4.2,0.1,4.4l0.3,0.4C0.6,5,0.8,5,1,4.9l0,0C1.6,4.4,2.1,4.1,2.6,4C3,4,3.4,4.7,3.9,6.4c0.9,3.2,2.2,7.1,3.6,7.1
	c1.4,0,3.2-1.2,5.4-4.1c2-2.6,3.1-4.7,3.2-6.2l0,0C16,2,15.8,1.2,15.3,0.7z"/> </symbol><symbol viewBox="0 0 16 11.2" id="shape-icon-youtube"><title>icon-youtube</title> <path d="M15.7,1.8c-0.2-0.9-0.9-1.5-1.7-1.6C12,0,10,0,8,0C6,0,4,0,2,0.2C1.2,0.3,0.5,0.9,0.3,1.8
		C0,3,0,4.3,0,5.6s0,2.6,0.3,3.8c0.2,0.9,0.9,1.5,1.7,1.6c2,0.2,4,0.2,6,0.2c2,0,4,0,6-0.2c0.8-0.1,1.5-0.7,1.7-1.6
		C16,8.1,16,6.8,16,5.6C16,4.3,16,3,15.7,1.8z M5.9,8.1c0-1.8,0-3.5,0-5.3C7.6,3.7,9.3,4.5,11,5.4C9.3,6.3,7.6,7.2,5.9,8.1z"/> </symbol></svg>