<!-- Generator: Adobe Illustrator 19.1.0, SVG Export Plug-In  -->
<svg version="1.1"
	 xmlns="http://www.w3.org/2000/svg" xmlns:xlink="http://www.w3.org/1999/xlink" xmlns:a="http://ns.adobe.com/AdobeSVGViewerExtensions/3.0/"
	 x="0px" y="0px" width="32px" height="27.7px" viewBox="0 0 32 27.7" enable-background="new 0 0 32 27.7" xml:space="preserve">
<defs>
</defs>
<g id="XMLID_1_">
	<path id="XMLID_3_" fill="#0058A4" d="M31.4,7.2l-6.5-6.5c-0.4-0.4-1-0.6-1.5-0.6c-0.6,0-1.1,0.2-1.5,0.6l-1.5,1.5
		C20,2.4,19.8,2.7,19.7,3l-7.2-1.3l0,0c-3.2-0.6-6.4,1.5-7,4.7L5.2,8C4.8,9.8,6,11.6,7.8,12c1.8,0.4,3.6-0.8,3.9-2.6l0.2-1l3.2,0.3
		l8.4,8.4l1.5,1.5c0.3,0.3,0.3,0.8,0,1.1c-0.3,0.3-0.8,0.3-1.1,0l-4.1-4.1c-0.3-0.3-0.7-0.3-1,0c-0.3,0.3-0.3,0.7,0,1l4.1,4.1
		c0.1,0.1,0.2,0.3,0.2,0.6s-0.1,0.4-0.2,0.6c-0.3,0.3-0.8,0.3-1.1,0l-4.1-4.1c-0.3-0.3-0.7-0.3-1,0c-0.3,0.3-0.3,0.7,0,1l4.1,4.1
		c0.3,0.3,0.3,0.8,0,1.1c-0.1,0.1-0.3,0.2-0.6,0.2c-0.2,0-0.4-0.1-0.6-0.2l-4.1-4.1c-0.3-0.3-0.7-0.3-1,0c-0.3,0.3-0.3,0.7,0,1
		l4.1,4.1c0.3,0.3,0.3,0.8,0,1.1c-0.3,0.3-0.8,0.3-1.1,0L3.1,11.7L1.2,9.8c-0.3-0.3-0.7-0.3-1,0c-0.3,0.3-0.3,0.7,0,1l1.9,1.9
		l2.1,2.1L3,15.9c-0.4,0.4-0.6,0.9-0.6,1.4s0.2,1,0.6,1.4l0.4,0.4c0.3,0.3,0.7,0.5,1.2,0.6c0,0.5,0.2,0.9,0.6,1.2l0.4,0.4
		c0.3,0.3,0.8,0.5,1.2,0.6c0,0.5,0.2,0.9,0.6,1.2l0.4,0.4c0.3,0.3,0.7,0.5,1.2,0.6c0,0.5,0.2,0.9,0.6,1.2l0.4,0.4
		c0.4,0.4,0.9,0.6,1.4,0.6c0.5,0,1-0.2,1.4-0.6l1.1-1.1l2.7,2.7c0.4,0.4,1,0.7,1.6,0.7s1.2-0.2,1.6-0.7c0.4-0.4,0.6-0.9,0.7-1.5
		c0.6,0,1.1-0.3,1.5-0.7c0.4-0.4,0.6-0.9,0.7-1.5c0.5,0,1.1-0.2,1.5-0.7c0.4-0.4,0.6-0.9,0.7-1.5c0.5,0,1.1-0.2,1.5-0.7
		c0.9-0.9,0.9-2.3,0-3.2l-1-1l3.7-3.7l2.6-2.6C32.2,9.4,32.2,8,31.4,7.2L31.4,7.2z M4.1,17.7c-0.2-0.2-0.2-0.5,0-0.7l1.1-1.1L6.3,17
		L5.2,18c-0.2,0.2-0.5,0.2-0.7,0L4.1,17.7z M6.2,19.8c-0.2-0.2-0.2-0.5,0-0.7L7.3,18l1.1,1.1l-1.1,1.1c-0.2,0.2-0.5,0.2-0.7,0
		L6.2,19.8z M8.4,22c-0.1-0.1-0.2-0.2-0.2-0.4c0-0.1,0.1-0.3,0.2-0.4l1.1-1.1l1.1,1.1l-1.1,1.1c-0.2,0.2-0.5,0.2-0.7,0L8.4,22
		L8.4,22z M11.6,24.5c-0.2,0.2-0.5,0.2-0.7,0l-0.4-0.4c-0.2-0.2-0.2-0.5,0-0.7l1.1-1.1l1.1,1.1L11.6,24.5z M24.1,15.5L16,7.4
		c-0.1-0.1-0.3-0.2-0.5-0.2l-4.1-0.4c0,0,0,0-0.1,0c-0.3,0-0.6,0.2-0.7,0.6L10.4,9c-0.2,1-1.2,1.7-2.2,1.5c-0.5-0.1-0.9-0.4-1.2-0.8
		C6.6,9.3,6.5,8.8,6.6,8.3L7,6.7c0.5-2.4,2.9-4,5.3-3.5c0,0,0,0,0,0l7.1,1.3l0.9,0.9l7,7L24.1,15.5z M30.3,9.2l-2,2l-7-7
		C21.1,4.1,21,3.9,21,3.7c0-0.2,0.1-0.4,0.2-0.5l1.5-1.5c0.1-0.1,0.3-0.2,0.5-0.2c0.2,0,0.4,0.1,0.5,0.2l6.5,6.5
		c0.1,0.1,0.2,0.3,0.2,0.5C30.5,8.9,30.5,9.1,30.3,9.2L30.3,9.2z"/>
	<circle id="XMLID_2_" fill="#0058A4" cx="28.6" cy="9" r="0.7"/>
</g>
</svg>
